<svg width="125" height="50" viewBox="0 0 125 50" fill="none" xmlns="http://www.w3.org/2000/svg">
<path d="M91.0821 15.0243C91.2548 15.4034 91.3375 15.8173 91.3236 16.2337C91.3097 16.6501 91.1997 17.0576 91.0021 17.4243C90.7054 17.9479 90.3349 18.4261 89.9021 18.8443C89.4031 19.3413 88.8756 19.8088 88.3221 20.2443C87.7521 20.6843 87.1921 21.1043 86.6221 21.4943C86.0521 21.8843 85.5521 22.2243 85.1221 22.4943C84.6342 22.767 84.1602 23.064 83.7021 23.3843L83.5421 23.5043L83.3321 23.6243C84.3039 23.7673 85.2658 23.971 86.2121 24.2343C87.1659 24.4837 88.0401 24.9725 88.7521 25.6543C89.153 26.0285 89.4111 26.5306 89.4821 27.0743C89.5682 27.5971 89.4951 28.1337 89.2721 28.6143C88.9753 29.175 88.5865 29.6821 88.1221 30.1143C87.5723 30.6444 86.9948 31.1451 86.3921 31.6143C85.7721 32.1043 85.1421 32.5543 84.5121 32.9743L82.9121 33.9743C81.6421 34.7643 80.3721 35.5343 79.1221 36.2843L75.2821 38.6043C75.1452 38.656 75.0116 38.7161 74.8821 38.7843L74.4721 39.0043C74.3421 38.8143 74.1921 38.6443 74.0521 38.4743L73.6221 37.9943C73.6099 37.9796 73.5946 37.9678 73.5773 37.9597C73.5601 37.9516 73.5412 37.9474 73.5221 37.9474C73.503 37.9474 73.4842 37.9516 73.4669 37.9597C73.4496 37.9678 73.4343 37.9796 73.4221 37.9943C73.3677 38.0609 73.2945 38.1097 73.2121 38.1343C72.7626 38.0005 72.3299 37.816 71.9221 37.5843C71.5121 37.3543 71.0821 37.1343 70.6221 36.9143C70.6163 36.6541 70.65 36.3944 70.7221 36.1443C70.8063 35.8933 70.91 35.6492 71.0321 35.4143L72.7521 31.6543L74.4921 27.8443C74.8221 27.1443 75.1421 26.4343 75.4921 25.7343C75.8421 25.0343 76.1521 24.3243 76.4921 23.6243C77.0321 22.4643 77.5821 21.3043 78.1521 20.1343C78.7221 18.9643 79.3121 17.8243 79.9421 16.6943C79.9894 16.588 80.0428 16.4845 80.1021 16.3843C80.1631 16.2748 80.2166 16.1612 80.2621 16.0443H79.7521C79.6125 16.029 79.4717 16.029 79.3321 16.0443L79.0221 16.1043H78.6821C78.5017 16.1136 78.3235 16.1472 78.1521 16.2043C77.9887 16.3141 77.8408 16.4453 77.7121 16.5943C77.1932 16.387 76.7026 16.1149 76.2521 15.7843C76.2521 15.6743 76.2521 15.5743 76.3121 15.4943C76.3171 15.4144 76.3171 15.3342 76.3121 15.2543C76.2568 15.1714 76.1894 15.0973 76.1121 15.0343C76.0221 14.9643 76.0121 14.8643 76.1121 14.7243C76.1958 14.5038 76.2398 14.2702 76.2421 14.0343C76.2691 13.7868 76.3824 13.5567 76.5621 13.3843C76.7404 13.2439 76.9494 13.1479 77.1721 13.1043C77.3921 13.0443 77.6121 13.0043 77.8421 12.9643L78.5521 12.8143L79.2221 12.7543C79.4521 12.7543 79.6721 12.7543 79.8921 12.6943L82.4221 12.5343C83.2814 12.4843 84.1428 12.4843 85.0021 12.5343C85.4821 12.5343 86.0021 12.6143 86.6421 12.6743C87.2436 12.7447 87.8388 12.8617 88.4221 13.0243C88.9828 13.1765 89.516 13.4161 90.0021 13.7343C90.4778 14.0525 90.8525 14.5001 91.0821 15.0243V15.0243ZM83.7821 27.0243C83.5157 26.9664 83.2446 26.9329 82.9721 26.9243C82.6998 26.9073 82.4291 26.8706 82.1621 26.8143L81.0821 26.7343C80.7421 26.7343 80.3921 26.6743 80.0121 26.6143C79.6321 26.5543 79.2521 26.5243 78.7921 26.4943C78.7921 26.4943 78.7921 26.6143 78.7121 26.6743C78.6892 26.7359 78.6625 26.796 78.6321 26.8543C78.0121 28.1343 77.4021 29.4043 76.8021 30.6743C76.2021 31.9443 75.6321 33.2243 75.0621 34.5243C75.011 34.5761 74.9703 34.6372 74.9421 34.7043C74.9218 34.7374 74.911 34.7755 74.911 34.8143C74.911 34.8532 74.9218 34.8912 74.9421 34.9243C74.9819 34.9184 75.0223 34.9184 75.0621 34.9243C75.0747 34.9298 75.0884 34.9327 75.1021 34.9327C75.1159 34.9327 75.1295 34.9298 75.1421 34.9243L78.5321 32.8443L81.9121 30.7543C82.5621 30.3443 83.1821 29.9143 83.7821 29.4543C84.3821 28.9943 84.9621 28.5243 85.5221 28.0343L85.6921 27.8943L85.8521 27.7543L85.7321 27.6243C85.6898 27.6112 85.6445 27.6112 85.6021 27.6243C85.3121 27.5243 85.0021 27.4243 84.6921 27.3443C84.3821 27.2643 84.1021 27.0443 83.7521 26.9943L83.7821 27.0243ZM87.3521 16.6443L87.5121 16.4743L87.7121 16.2743C87.1275 16.0616 86.5137 15.9402 85.8921 15.9143C85.2921 15.9143 84.6821 15.9143 84.0621 15.9143C83.6621 16.6943 83.2521 17.4843 82.8521 18.2843C82.4521 19.0843 82.0221 19.9143 81.5921 20.7743C81.648 20.7341 81.7084 20.7005 81.7721 20.6743C81.8115 20.6667 81.8469 20.6455 81.8721 20.6143C82.2521 20.3743 82.6421 20.1243 83.0521 19.8843C83.4621 19.6443 83.8521 19.3843 84.2321 19.1143C84.7721 18.7343 85.3121 18.3543 85.8521 17.9543C86.392 17.5544 86.8941 17.1059 87.3521 16.6143V16.6443Z" fill="white"/>
<path d="M111.812 44.7543C111.866 44.8706 111.926 44.9841 111.992 45.0943C112.057 45.2284 112.091 45.3753 112.092 45.5243L111.012 46.3543C110.669 46.6226 110.312 46.8729 109.942 47.1043C109.917 47.1338 109.885 47.1576 109.85 47.1738C109.815 47.1901 109.776 47.1986 109.737 47.1986C109.698 47.1986 109.66 47.1901 109.624 47.1738C109.589 47.1576 109.558 47.1338 109.532 47.1043L109.072 46.5543L108.602 46.0143C108.032 45.3643 107.472 44.7143 106.902 44.0843L105.202 42.1943L104.002 40.8643C103.612 40.4243 103.222 39.9843 102.842 39.5243C102.572 39.2243 102.302 38.9243 102.032 38.6043C101.762 38.2843 101.502 37.9943 101.262 37.6943L99.2622 35.3643L97.2622 33.0343L94.4622 29.7443L94.3022 29.5843L94.1322 29.4243L93.9922 29.6443C93.9511 29.7173 93.9175 29.7944 93.8922 29.8743C93.3222 31.2243 92.7622 32.5643 92.1922 33.8743C91.6222 35.1843 91.0722 36.5543 90.5322 37.8743C90.4701 38.0116 90.4 38.1452 90.3222 38.2743C90.2436 38.4048 90.1766 38.542 90.1222 38.6843C90.0417 38.8443 89.9277 38.9852 89.7879 39.0974C89.6481 39.2095 89.4859 39.2903 89.3122 39.3343C89.1314 39.2032 88.9408 39.0862 88.7422 38.9843C88.5277 38.8764 88.3235 38.7493 88.1322 38.6043C87.9422 38.4643 87.7522 38.3443 87.5722 38.2343C87.3922 38.1243 87.1922 38.0043 87.0022 37.8743C87.0022 37.7043 87.0022 37.6143 87.0022 37.5843C87.1594 37.3267 87.2933 37.0557 87.4022 36.7743C87.5122 36.5043 87.6322 36.2243 87.7722 35.9243C88.3922 34.4143 89.0122 32.9243 89.6322 31.4443C90.2522 29.9643 90.8822 28.4443 91.5022 27.0043C91.5816 26.8464 91.6485 26.6826 91.7022 26.5143C91.6404 26.2935 91.4975 26.1042 91.3022 25.9843C91.1132 25.8836 90.9571 25.7309 90.8522 25.5443C90.7422 25.3543 90.6322 25.1743 90.5122 24.9943C90.3864 24.816 90.2949 24.616 90.2422 24.4043C90.6222 24.1143 91.0222 23.8343 91.4422 23.5743C91.8622 23.3143 92.2822 23.0643 92.7222 22.8243C92.7974 22.8821 92.8877 22.9168 92.9822 22.9243C93.0858 22.9455 93.1866 22.979 93.2822 23.0243C93.8522 21.6743 94.4622 20.3743 95.1122 19.1143C95.7622 17.8543 96.4122 16.5843 97.0522 15.2843C97.0683 15.2186 97.0683 15.15 97.0522 15.0843C96.9922 15.0243 96.9522 14.9943 96.9222 14.9943H95.9222C95.5868 14.9926 95.2519 15.0227 94.9222 15.0843C94.4602 15.2132 93.9758 15.2405 93.5022 15.1643C93.3899 15.1354 93.2845 15.0844 93.1922 15.0143C93.135 14.9238 93.1007 14.8209 93.0922 14.7143C93.0819 14.5511 93.0819 14.3874 93.0922 14.2243C93.1071 14.0646 93.1071 13.9039 93.0922 13.7443C93.0853 13.6045 93.0584 13.4664 93.0122 13.3343C93.0122 13.2043 92.9122 13.0743 92.8722 12.9543C92.8322 12.8343 92.7822 12.7043 92.7322 12.5643C92.8098 12.3966 92.9445 12.2619 93.1122 12.1843C93.2779 12.11 93.4483 12.0466 93.6222 11.9943C94.0328 11.8829 94.4568 11.8291 94.8822 11.8343L96.7622 11.6943L98.6522 11.5943C99.1922 11.5943 99.7322 11.5943 100.272 11.5943C100.813 11.591 101.354 11.6177 101.892 11.6743C102.015 11.6875 102.139 11.6875 102.262 11.6743H102.622C103.162 11.6743 103.742 11.7443 104.362 11.8143C104.984 11.8818 105.602 11.9854 106.212 12.1243C106.82 12.254 107.415 12.4346 107.992 12.6643C108.534 12.8712 109.045 13.1504 109.512 13.4943C109.671 13.6208 109.821 13.7578 109.962 13.9043C110.113 14.0549 110.251 14.2189 110.372 14.3943C110.66 14.8415 110.813 15.3623 110.813 15.8943C110.813 16.4263 110.66 16.947 110.372 17.3943C110.123 17.8084 109.82 18.1883 109.472 18.5243C109.09 18.9087 108.679 19.2631 108.242 19.5843C107.792 19.9043 107.352 20.2043 106.902 20.4743L105.752 21.2743C104.562 21.9243 103.372 22.5343 102.162 23.1143C100.952 23.6943 99.7522 24.2743 98.5022 24.8443L97.3322 25.4143C96.9222 25.5943 96.5322 25.7843 96.1522 25.9743L95.9922 26.0543L95.7922 26.1843L95.9522 26.4243C95.998 26.4966 96.0516 26.5637 96.1122 26.6243C97.7122 28.5176 99.3155 30.3976 100.922 32.2643C102.532 34.1243 104.142 35.9943 105.762 37.8543C106.652 38.8543 107.552 39.8543 108.462 40.9243L111.202 43.9843L111.502 44.3643L111.812 44.7543ZM97.9822 20.7543C97.9208 20.9081 97.8507 21.0584 97.7722 21.2043C97.6922 21.3643 97.6322 21.5143 97.5722 21.6443L97.6522 21.7243C97.9022 21.5943 98.1522 21.4843 98.4022 21.3843C98.661 21.2915 98.9118 21.1777 99.1522 21.0443C100.072 20.5843 100.992 20.1243 101.912 19.6843C102.832 19.2443 103.742 18.7543 104.632 18.2443C105.092 17.9743 105.532 17.6943 105.972 17.4143C106.407 17.1207 106.812 16.7858 107.182 16.4143L107.342 16.2743C107.402 16.2743 107.412 16.1643 107.342 16.0543L107.162 15.9543L106.982 15.8443C106.212 15.5407 105.411 15.3259 104.592 15.2043C104.289 15.1437 103.981 15.1135 103.672 15.1143C103.367 15.1179 103.062 15.0911 102.762 15.0343C102.431 14.9813 102.097 14.9545 101.762 14.9543C101.432 14.9543 101.102 14.9543 100.762 14.9543L100.472 15.0343C100.525 15.1222 100.559 15.2197 100.572 15.3211C100.586 15.4225 100.579 15.5256 100.552 15.6243C100.502 15.8003 100.435 15.9711 100.352 16.1343C100.162 16.4843 99.9922 16.8243 99.8222 17.1343C99.6522 17.4443 99.4822 17.7943 99.3022 18.1343C99.1222 18.4743 98.8522 18.9943 98.6122 19.4243C98.3722 19.8543 98.1922 20.2743 97.9822 20.7043V20.7543Z" fill="white"/>
<path d="M124.282 16.9743C124.361 17.3353 124.382 17.7068 124.342 18.0743C124.296 18.4434 124.219 18.808 124.112 19.1643C124.062 19.3243 124.012 19.4943 123.952 19.6743C123.892 19.8543 123.842 20.0143 123.792 20.1743C123.754 20.2846 123.7 20.3889 123.632 20.4843C123.588 20.5239 123.535 20.5534 123.478 20.5706C123.421 20.5879 123.361 20.5926 123.302 20.5843H122.412H121.522H120.752C120.722 20.533 120.695 20.4795 120.672 20.4243C120.659 20.3717 120.659 20.3168 120.672 20.2643C120.658 20.1013 120.658 19.9373 120.672 19.7743V19.2843C120.671 19.0704 120.726 18.8599 120.832 18.6743C121.042 18.2569 121.132 17.7896 121.092 17.3243C121.048 16.8646 120.919 16.4171 120.712 16.0043C120.618 15.7899 120.464 15.6071 120.269 15.4776C120.074 15.3482 119.846 15.2776 119.612 15.2743C119.058 15.2999 118.526 15.4993 118.092 15.8443C117.523 16.2644 117 16.7438 116.532 17.2743C116.052 17.7962 115.605 18.3473 115.192 18.9243C114.792 19.4843 114.482 19.9443 114.262 20.3043C113.647 21.2422 113.143 22.2491 112.762 23.3043C112.374 24.3639 112.076 25.4544 111.872 26.5643C111.737 27.1993 111.66 27.8453 111.642 28.4943C111.631 29.1351 111.654 29.776 111.712 30.4143C111.767 31.076 111.958 31.7194 112.272 32.3043C112.587 32.8949 113.066 33.3813 113.652 33.7043C113.846 33.8293 114.071 33.8984 114.302 33.9043C114.544 33.8884 114.779 33.8202 114.992 33.7043L115.232 33.5443L115.482 33.3743C115.752 33.1643 116.022 32.9343 116.292 32.7043L117.102 32.0343C117.266 31.8985 117.414 31.7441 117.542 31.5743C117.682 31.3943 117.812 31.2243 117.952 31.0643C118.034 30.9848 118.107 30.8978 118.172 30.8043L118.402 30.4943C118.858 30.6998 119.302 30.9302 119.732 31.1843L120.912 31.9143C120.976 32.1126 120.976 32.3259 120.912 32.5243C120.658 32.9725 120.36 33.3946 120.022 33.7843C119.389 34.4082 118.722 34.9958 118.022 35.5443C117.342 36.094 116.6 36.5637 115.812 36.9443C115.703 36.9958 115.589 37.036 115.472 37.0643C115.358 37.1001 115.241 37.1268 115.122 37.1443C114.776 37.2523 114.413 37.2897 114.052 37.2543C113.708 37.2125 113.371 37.1216 113.052 36.9843C111.538 36.4721 110.278 35.3982 109.532 33.9843C108.811 32.5918 108.421 31.052 108.392 29.4843C108.365 28.4462 108.438 27.408 108.612 26.3843C108.79 25.3713 109.027 24.3696 109.322 23.3843C109.674 22.242 110.129 21.1341 110.682 20.0743C111.326 18.8101 112.086 17.6084 112.952 16.4843C113.797 15.3734 114.771 14.3664 115.852 13.4843C116.782 12.7097 117.906 12.2048 119.102 12.0243C119.692 11.9717 120.287 12.0384 120.85 12.2205C121.414 12.4026 121.935 12.6964 122.382 13.0843C122.931 13.5203 123.375 14.0739 123.682 14.7043C123.979 15.3356 124.172 16.0111 124.252 16.7043C124.241 16.7435 124.241 16.785 124.252 16.8243C124.273 16.8716 124.283 16.9227 124.282 16.9743V16.9743ZM119.492 25.4543C119.367 25.4841 119.254 25.5544 119.172 25.6543C119.149 25.6826 119.137 25.7179 119.137 25.7543C119.137 25.7906 119.149 25.8259 119.172 25.8543L119.272 26.0143L119.392 26.2643L119.672 26.7043C119.722 26.8183 119.766 26.9352 119.802 27.0543C119.828 27.1593 119.868 27.2603 119.922 27.3543C119.723 27.5577 119.49 27.7237 119.232 27.8443L118.462 28.2043C118.402 28.2043 118.332 28.1043 118.232 27.9643C118.128 27.8144 118.034 27.6573 117.952 27.4943C117.864 27.3384 117.784 27.1782 117.712 27.0143C117.66 26.8919 117.596 26.7747 117.522 26.6643C117.43 26.743 117.32 26.7979 117.202 26.8243L116.572 27.2143L115.942 27.6043C115.832 27.6343 115.725 27.6745 115.622 27.7243C115.565 27.7174 115.509 27.6988 115.459 27.6695C115.41 27.6403 115.366 27.601 115.332 27.5543C115.3 27.5111 115.258 27.4772 115.209 27.4561C115.159 27.435 115.105 27.4275 115.052 27.4343C114.855 27.5045 114.639 27.5045 114.442 27.4343C114.333 27.2071 114.305 26.9496 114.362 26.7043C114.347 26.6658 114.347 26.6228 114.362 26.5843C114.397 26.5501 114.424 26.5093 114.442 26.4643C114.609 26.2492 114.816 26.0691 115.052 25.9343C115.319 25.8056 115.576 25.6585 115.822 25.4943C116.062 25.3243 116.322 25.1643 116.592 25.0043C116.544 24.8212 116.477 24.6436 116.392 24.4743L116.152 23.9943C116.12 23.9595 116.083 23.9292 116.042 23.9043C116.005 23.8833 115.971 23.8563 115.942 23.8243C115.729 23.8243 115.649 23.7043 115.702 23.4643C115.686 23.3683 115.686 23.2703 115.702 23.1743V22.9343C115.703 22.8933 115.714 22.8531 115.735 22.8179C115.756 22.7828 115.786 22.7539 115.822 22.7343L116.092 22.5343C116.186 22.445 116.304 22.3858 116.432 22.3643H116.512C116.718 22.3126 116.936 22.333 117.129 22.4222C117.322 22.5113 117.478 22.6638 117.572 22.8543C117.669 22.9839 117.756 23.121 117.832 23.2643C117.902 23.3943 117.972 23.5343 118.052 23.6643C118.085 23.7832 118.139 23.8951 118.212 23.9943C118.535 23.8561 118.844 23.6852 119.132 23.4843C119.411 23.2847 119.718 23.1264 120.042 23.0143H120.242C120.404 23.2322 120.548 23.463 120.672 23.7043C120.792 23.9543 120.922 24.1943 121.052 24.4343C120.782 24.6243 120.512 24.8043 120.242 24.9643C119.972 25.1243 119.752 25.2743 119.492 25.4543Z" fill="white"/>
<path d="M32.5921 43.9842C30.8971 44.0252 29.2448 43.4496 27.9421 42.3642C27.371 41.805 26.9257 41.1305 26.636 40.3855C26.3463 39.6406 26.2188 38.8424 26.2621 38.0442C26.2572 37.9944 26.2572 37.9441 26.2621 37.8942C26.2621 37.8442 27.2621 32.8942 25.0721 29.7342C23.8881 28.0224 23.1617 26.0361 22.9621 23.9642C21.1711 24.9802 19.1511 25.5239 17.0921 25.5442C15.725 25.5414 14.3698 25.2906 13.0921 24.8042C12.7893 24.6873 12.5217 24.4943 12.3151 24.2439C12.1085 23.9935 11.9699 23.6941 11.9126 23.3746C11.8553 23.055 11.8813 22.7261 11.9881 22.4196C12.0948 22.113 12.2788 21.8391 12.5221 21.6242C13.5756 20.6863 14.7371 19.8773 15.9821 19.2142C15.5821 19.2142 15.1721 19.1042 14.7621 19.0242C12.6813 18.6593 10.7534 17.6915 9.21746 16.2409C7.68157 14.7904 6.6053 12.9209 6.12213 10.8642C5.31213 8.01424 3.69212 4.19424 0.522121 2.18424C0.287385 2.02814 0.116901 1.79254 0.0420261 1.52076C-0.0328492 1.24899 -0.00708205 0.959312 0.114589 0.705019C0.236261 0.450726 0.445661 0.248911 0.704265 0.136694C0.962869 0.0244771 1.25329 0.00940369 1.52212 0.0942441C5.46212 1.42424 8.52212 4.59425 10.3921 7.01425C11.4123 8.46083 12.7224 9.67915 14.2392 10.5916C15.756 11.5041 17.4462 12.0908 19.2021 12.3142C21.3208 12.5343 23.4562 12.1017 25.3221 11.0742C26.8562 10.1415 28.5912 9.58947 30.3821 9.46424C32.1221 9.46424 32.5921 9.46424 32.7021 9.46424C32.8078 9.44422 32.9164 9.44422 33.0221 9.46424C33.1321 9.46424 33.6021 9.46424 35.3421 9.46424C37.1322 9.59402 38.8662 10.1457 40.4021 11.0742C42.2782 12.0919 44.4209 12.5107 46.5421 12.2742C48.2991 12.0497 49.9904 11.4627 51.5086 10.5504C53.0269 9.63801 54.3391 8.42026 55.3621 6.97425C57.2221 4.55424 60.2821 1.38424 64.2221 0.0542432C64.491 -0.0305972 64.7814 -0.01552 65.04 0.096697C65.2986 0.208914 65.508 0.410725 65.6297 0.665018C65.7513 0.919311 65.7771 1.20898 65.7022 1.48076C65.6273 1.75254 65.4569 1.98814 65.2221 2.14424C62.0521 4.14424 60.4321 7.97424 59.6221 10.8242C59.1389 12.8809 58.0627 14.7504 56.5268 16.2009C54.9909 17.6515 53.063 18.6193 50.9821 18.9842C50.5721 19.0642 50.1621 19.1242 49.7621 19.1742C51.0071 19.8372 52.1686 20.6463 53.2221 21.5842C53.4655 21.7991 53.6494 22.073 53.7562 22.3796C53.8629 22.6861 53.8889 23.015 53.8317 23.3346C53.7744 23.6541 53.6358 23.9535 53.4292 24.2039C53.2226 24.4543 52.955 24.6473 52.6521 24.7642C51.3745 25.2506 50.0192 25.5014 48.6521 25.5042C46.5867 25.4995 44.5564 24.9695 42.7521 23.9642C42.5525 26.0361 41.8261 28.0224 40.6421 29.7342C38.4821 32.9242 39.4421 37.8442 39.4521 37.8942C39.4571 37.9441 39.4571 37.9944 39.4521 38.0442C39.4954 38.8424 39.3679 39.6406 39.0782 40.3855C38.7885 41.1305 38.3433 41.805 37.7721 42.3642C36.3833 43.4981 34.6227 44.0754 32.8321 43.9842H32.5921ZM32.8821 42.4542H32.9421C34.3126 42.5308 35.6648 42.112 36.7521 41.2742C37.1575 40.8642 37.4728 40.3739 37.6777 39.8349C37.8826 39.2959 37.9727 38.7201 37.9421 38.1442C37.8121 37.4242 37.0021 32.4242 39.3821 28.9142C40.6627 27.0944 41.3188 24.9085 41.2521 22.6842C41.2379 22.5345 41.2679 22.3839 41.3383 22.251C41.4087 22.118 41.5166 22.0087 41.6484 21.9363C41.7803 21.864 41.9305 21.8319 42.0804 21.844C42.2304 21.856 42.3735 21.9118 42.4921 22.0042C43.3545 22.6424 44.3132 23.1386 45.3321 23.4742C47.5133 24.2672 49.9079 24.2424 52.0721 23.4042C52.129 23.385 52.1795 23.3506 52.2183 23.3048C52.257 23.259 52.2826 23.2035 52.2921 23.1442C52.3046 23.0805 52.3001 23.0146 52.279 22.9532C52.2579 22.8917 52.2211 22.8369 52.1721 22.7942C50.1006 20.9451 47.5857 19.6636 44.8721 19.0742H44.7121C44.5168 19.0266 44.3474 18.9053 44.2394 18.7357C44.1313 18.5662 44.0929 18.3614 44.1321 18.1642C44.1753 17.9684 44.2941 17.7975 44.4627 17.6888C44.6312 17.5802 44.8359 17.5426 45.0321 17.5842H45.1521C46.9799 17.9231 48.8544 17.9231 50.6821 17.5842C52.4807 17.2695 54.1463 16.4306 55.4699 15.1728C56.7934 13.9151 57.7161 12.2944 58.1221 10.5142C58.8566 7.63406 60.2615 4.96826 62.2221 2.73424C60.0163 4.12818 58.0845 5.91432 56.5221 8.00424C55.3787 9.59139 53.9216 10.9269 52.241 11.928C50.5605 12.9291 48.6923 13.5745 46.7521 13.8242C44.3296 14.0793 41.887 13.5873 39.7521 12.4142C38.4538 11.6006 36.9792 11.1102 35.4521 10.9842C33.9721 10.9842 33.2921 10.9842 32.9421 10.9842C32.5921 10.9842 31.9421 10.9842 30.4321 10.9842C28.9051 11.1102 27.4305 11.6006 26.1321 12.4142C23.9972 13.5873 21.5547 14.0793 19.1321 13.8242C17.1732 13.5778 15.2865 12.9281 13.5912 11.916C11.8959 10.904 10.4287 9.55164 9.28212 7.94424C7.72319 5.84768 5.78671 4.06042 3.57212 2.67425C5.55715 4.89286 6.96829 7.56408 7.68212 10.4542C8.08812 12.2344 9.0108 13.8551 10.3344 15.1128C11.658 16.3706 13.3236 17.2095 15.1221 17.5242C16.9499 17.8631 18.8244 17.8631 20.6521 17.5242H20.7721C20.9683 17.4826 21.173 17.5202 21.3416 17.6289C21.5102 17.7375 21.629 17.9084 21.6721 18.1042C21.7114 18.3014 21.673 18.5062 21.5649 18.6757C21.4568 18.8453 21.2874 18.9666 21.0921 19.0142H20.9321C18.2186 19.6035 15.7037 20.8851 13.6321 22.7342C13.5832 22.7769 13.5463 22.8317 13.5252 22.8932C13.5042 22.9546 13.4997 23.0205 13.5121 23.0842C13.5217 23.1435 13.5472 23.199 13.586 23.2448C13.6248 23.2906 13.6753 23.325 13.7321 23.3442C15.8963 24.1824 18.291 24.2072 20.4721 23.4142C21.4923 23.0742 22.4537 22.5784 23.3221 21.9442C23.4396 21.851 23.5821 21.7946 23.7315 21.7821C23.881 21.7697 24.0308 21.8017 24.1621 21.8742C24.294 21.9493 24.4011 22.0611 24.4704 22.1961C24.5397 22.3311 24.5681 22.4834 24.5521 22.6342C24.4869 24.8552 25.143 27.0375 26.4221 28.8542C28.8021 32.3642 27.9921 37.3642 27.8621 38.0842C27.8125 38.6641 27.8858 39.2479 28.077 39.7976C28.2683 40.3473 28.5733 40.8504 28.9721 41.2742C30.0689 42.1334 31.4411 42.5636 32.8321 42.4842L32.8821 42.4542Z" fill="white"/>
<path d="M29.9821 24.5543C29.9821 24.6343 29.8921 24.7143 29.8421 24.7843C29.8364 24.8035 29.827 24.8213 29.8143 24.8368C29.8016 24.8522 29.7859 24.865 29.7682 24.8743C29.7505 24.8836 29.7311 24.8893 29.7112 24.891C29.6912 24.8927 29.6712 24.8905 29.6521 24.8843H29.4621C29.3766 24.8751 29.2925 24.855 29.2121 24.8243C29.1286 24.796 29.0481 24.7591 28.9721 24.7143C28.8798 24.6837 28.7896 24.6469 28.7021 24.6043C28.616 24.5639 28.5253 24.5337 28.4321 24.5143L28.0421 25.0843C27.9148 25.2673 27.8044 25.4614 27.7121 25.6643C27.6899 25.7216 27.6596 25.7755 27.6221 25.8243L27.4921 25.9843C27.4591 26.0138 27.4164 26.0301 27.3721 26.0301C27.3279 26.0301 27.2851 26.0138 27.2521 25.9843L26.9121 25.7343C26.7882 25.658 26.6824 25.5557 26.6021 25.4343C26.653 25.3124 26.7203 25.198 26.8021 25.0943C26.8868 24.9866 26.9637 24.873 27.0321 24.7543C27.1121 24.6343 27.1821 24.5243 27.2521 24.3943C27.3221 24.2643 27.3921 24.1543 27.4721 24.0343H27.4021H27.3421L26.7721 23.7843L26.2021 23.5543L26.0621 23.4643C26.1208 23.3252 26.1677 23.1813 26.2021 23.0343C26.238 22.8962 26.2954 22.7646 26.3721 22.6443C26.4717 22.6048 26.5826 22.6048 26.6821 22.6443L26.8421 22.7043L26.9721 22.7643C27.1621 22.8343 27.3421 22.9043 27.5121 22.9843L28.0421 23.2143L28.2521 22.9143C28.3121 22.8143 28.3821 22.7143 28.4321 22.6143C28.4938 22.4658 28.6076 22.3448 28.7521 22.2743L29.0621 22.4243L29.3721 22.5643C29.5021 22.6243 29.5321 22.7043 29.4821 22.8243C29.4518 22.8826 29.4251 22.9427 29.4021 23.0043C29.369 23.071 29.325 23.1318 29.2721 23.1843C29.2177 23.2545 29.1676 23.328 29.1221 23.4043L28.9621 23.6243L29.2921 23.7843C29.3952 23.8281 29.5024 23.8616 29.6121 23.8843C29.6728 23.8904 29.7311 23.9109 29.7821 23.9443L29.9421 24.0543C29.9478 24.1208 29.9478 24.1877 29.9421 24.2543C29.9381 24.2869 29.9414 24.3199 29.9517 24.3511C29.9621 24.3822 29.9793 24.4107 30.0021 24.4343C30.0032 24.4752 29.9964 24.5159 29.9821 24.5543Z" fill="white"/>
<path d="M39.6622 23.5143L39.0922 23.7443L38.5222 23.9943H38.4622H38.3922C38.4722 24.1143 38.5422 24.2343 38.6122 24.3543C38.6822 24.4743 38.7522 24.5943 38.8322 24.7143C38.9007 24.8329 38.9775 24.9465 39.0622 25.0543C39.1405 25.1603 39.2075 25.2743 39.2622 25.3943C39.1819 25.5156 39.0761 25.618 38.9522 25.6943L38.6122 25.9443C38.5792 25.9738 38.5365 25.9901 38.4922 25.9901C38.4479 25.9901 38.4052 25.9738 38.3722 25.9443L38.2422 25.7843C38.2048 25.7355 38.1745 25.6816 38.1522 25.6243C38.0599 25.4214 37.9495 25.2272 37.8222 25.0443L37.4322 24.4743C37.3386 24.4921 37.2478 24.5224 37.1622 24.5643L36.8922 24.6743C36.8162 24.7191 36.7358 24.756 36.6522 24.7843C36.5686 24.8158 36.4812 24.836 36.3922 24.8443H36.2122C36.1933 24.852 36.1728 24.8556 36.1524 24.8546C36.1319 24.8536 36.112 24.8482 36.0938 24.8386C36.0757 24.8291 36.0599 24.8157 36.0475 24.7994C36.0352 24.7831 36.0265 24.7643 36.0222 24.7443C35.9722 24.6743 35.9322 24.5943 35.8822 24.5143C35.8703 24.465 35.8703 24.4136 35.8822 24.3643C35.898 24.3369 35.9063 24.3059 35.9063 24.2743C35.9063 24.2427 35.898 24.2116 35.8822 24.1843V23.9843L36.0322 23.8743C36.0876 23.8425 36.1488 23.8221 36.2122 23.8143C36.3219 23.7916 36.4291 23.7581 36.5322 23.7143L36.8622 23.5543L36.7522 23.3743C36.7067 23.2979 36.6567 23.2245 36.6022 23.1543C36.5493 23.1018 36.5054 23.041 36.4722 22.9743C36.4493 22.9127 36.4226 22.8525 36.3922 22.7943C36.3422 22.6743 36.3922 22.5943 36.5022 22.5343L36.8122 22.3943L37.1122 22.2443C37.2724 22.3095 37.4037 22.4302 37.4822 22.5843C37.4822 22.6843 37.6022 22.7843 37.6622 22.8843L37.8722 23.1843L38.4022 22.9543L38.9322 22.7343L39.0722 22.6743L39.2322 22.6143C39.3317 22.5747 39.4426 22.5747 39.5422 22.6143C39.619 22.7345 39.6763 22.8662 39.7122 23.0043C39.7477 23.1498 39.7911 23.2934 39.8422 23.4343L39.6622 23.5143Z" fill="white"/>
<path d="M34.8721 45.4143C34.9548 45.642 34.9987 45.882 35.0021 46.1243C35.0021 46.6547 34.7914 47.1634 34.4163 47.5385C34.0413 47.9135 33.5325 48.1243 33.0021 48.1243C32.4717 48.1243 31.963 47.9135 31.5879 47.5385C31.2128 47.1634 31.0021 46.6547 31.0021 46.1243C31.0007 45.8815 31.0447 45.6407 31.1321 45.4143C30.6556 45.3224 30.1898 45.1817 29.7421 44.9943C29.6184 45.3582 29.5542 45.7398 29.5521 46.1243C29.5269 46.5936 29.5975 47.0632 29.7597 47.5043C29.9219 47.9455 30.1723 48.349 30.4956 48.6901C30.819 49.0313 31.2084 49.303 31.6402 49.4887C32.072 49.6744 32.5371 49.7702 33.0071 49.7702C33.4772 49.7702 33.9423 49.6744 34.374 49.4887C34.8058 49.303 35.1953 49.0313 35.5186 48.6901C35.8419 48.349 36.0923 47.9455 36.2545 47.5043C36.4167 47.0632 36.4874 46.5936 36.4621 46.1243C36.4607 45.7389 36.3931 45.3567 36.2621 44.9943C35.8146 45.1821 35.3488 45.3228 34.8721 45.4143V45.4143Z" fill="white"/>
</svg>
