<svg width="21" height="16" viewBox="0 0 21 16" fill="none" xmlns="http://www.w3.org/2000/svg">
<path d="M17.9485 4.72248C17.9395 4.05067 17.8135 3.38554 17.5762 2.75685C17.3704 2.22655 17.056 1.74494 16.6532 1.34279C16.2504 0.940648 15.768 0.626811 15.2368 0.421333C14.6151 0.188364 13.9584 0.0623939 13.2945 0.048786C12.4398 0.0106443 12.1688 0 9.99911 0C7.82941 0 7.55131 5.94791e-08 6.7028 0.048786C6.03923 0.0624939 5.38281 0.188463 4.76144 0.421333C4.23017 0.626668 3.74769 0.940454 3.34485 1.34262C2.94202 1.74478 2.62771 2.22646 2.42203 2.75685C2.18821 3.37699 2.0623 4.03247 2.04976 4.69498C2.01155 5.54917 2 5.81972 2 7.98581C2 10.1519 2 10.4287 2.04976 11.2766C2.06308 11.9401 2.18836 12.5947 2.42203 13.2165C2.62806 13.7468 2.9426 14.2283 3.34557 14.6302C3.74853 15.0322 4.23107 15.3459 4.76233 15.5512C5.38199 15.7935 6.03854 15.9285 6.70369 15.9503C7.55931 15.9885 7.8303 16 10 16C12.1697 16 12.4478 16 13.2963 15.9503C13.9602 15.9373 14.6169 15.8116 15.2386 15.5787C15.7696 15.373 16.2519 15.059 16.6547 14.6569C17.0575 14.2548 17.3719 13.7733 17.578 13.2432C17.8116 12.6222 17.9369 11.9676 17.9502 11.3033C17.9884 10.4499 18 10.1794 18 8.01242C17.9982 5.84633 17.9982 5.57135 17.9485 4.72248V4.72248ZM9.99378 12.0821C7.72457 12.0821 5.88627 10.2468 5.88627 7.98137C5.88627 5.71593 7.72457 3.8807 9.99378 3.8807C11.0832 3.8807 12.1279 4.31273 12.8982 5.08176C13.6685 5.85078 14.1013 6.89381 14.1013 7.98137C14.1013 9.06894 13.6685 10.112 12.8982 10.881C12.1279 11.65 11.0832 12.082 9.99378 12.0821V12.0821ZM14.2648 4.68522C14.139 4.68534 14.0144 4.66068 13.8981 4.61267C13.7818 4.56466 13.6762 4.49423 13.5872 4.40542C13.4983 4.3166 13.4277 4.21114 13.3796 4.09508C13.3316 3.97901 13.3069 3.85462 13.307 3.72902C13.307 3.6035 13.3317 3.47922 13.3798 3.36326C13.428 3.24731 13.4985 3.14194 13.5874 3.05319C13.6763 2.96444 13.7818 2.89404 13.898 2.84601C14.0141 2.79798 14.1386 2.77326 14.2643 2.77326C14.39 2.77326 14.5145 2.79798 14.6307 2.84601C14.7468 2.89404 14.8524 2.96444 14.9413 3.05319C15.0302 3.14194 15.1007 3.24731 15.1488 3.36326C15.1969 3.47922 15.2217 3.6035 15.2217 3.72902C15.2217 4.25768 14.7934 4.68522 14.2648 4.68522Z" fill="white"/>
</svg>
