<?xml version="1.0" encoding="utf-8"?>
<!-- Generator: Adobe Illustrator 26.0.1, SVG Export Plug-In . SVG Version: 6.00 Build 0)  -->
<svg version="1.1" id="Слой_1" xmlns="http://www.w3.org/2000/svg" xmlns:xlink="http://www.w3.org/1999/xlink" x="0px" y="0px"
	 viewBox="0 0 40 40" style="enable-background:new 0 0 40 40;" xml:space="preserve">
<style type="text/css">
	.st0{fill:#F99D1C;}
</style>
<path class="st0" d="M38.4,18.5c-1.6-2.2-3.7-3.5-6.3-4c-0.3-0.1-0.4-0.1-0.4-0.4c-0.1-1.2-0.6-2.2-1.5-3.1c-0.4-0.4-0.7-0.9-1-1.4
	c-0.7-1.2-0.7-2.4,0.3-3.5c0.5-0.5,0.5-1,0.1-1.6C29.4,4.2,29.2,4,29,3.7c0,0,0-0.1-0.1-0.1c-0.3-0.4-1.1-0.5-1.4-0.2
	c0,0,0,0-0.3,0.3l0,0c-1,1.4-1.3,2.8-0.7,4.3c0.4,0.9,1,1.6,1.6,2.4c0.6,0.7,1.3,1.4,1.8,2.2c0.3,0.5,0.4,1.1,0.6,1.7
	c0,0.1-0.1,0.3-0.2,0.3c-0.4,0.3-0.9,0.5-1.3,0.8c-0.8,0.6-1.2,0.4-1.4-0.5c0-0.2-0.1-0.4-0.1-0.5c-0.3-1-0.8-1.9-1.6-2.6
	c-0.5-0.5-1-1-1.5-1.6c-0.8-1-0.9-2.1-0.1-3.2c0.2-0.3,0.2-0.7,0.2-1c-0.1-0.7-1-1.3-1.7-1.4c-0.6-0.1-1.1,0.3-1.4,1.1
	c-0.5,1.4-0.4,2.8,0.5,4c0.5,0.7,1.2,1.2,1.8,1.8c0.7,0.6,1.4,1.2,2,1.9c0.8,0.9,1,2,0.6,3.1c-0.2,0.7-0.4,1.4-0.2,2.1
	c0.1,0.3,0,0.7,0.1,1c0.2,1.3,0.4,2.6,0.8,3.8c0.2,0.7,0.5,1.3,0.8,1.9c0.2,0.5-0.1,0.8-0.6,0.7c-0.5-0.1-1-0.4-1.2-0.9
	c-0.3-0.8-0.5-1.6-0.8-2.3c-0.2-0.5-0.4-1-0.8-1.3c-1.4-1.4-3.2-2.2-5.1-2.5c-2-0.3-3.9-0.1-5.8,0.3c-2.3,0.4-4,1.8-4.8,4.1
	c-0.2,0.6-0.3,1.3-0.5,2c-0.5,2.4,0.3,4.4,2.3,5.9c1.8,1.3,3.9,1.5,6,1c1.2-0.3,2.2-0.8,2.8-2c1.1-2.2-0.5-5-2.9-5.2
	c-1.1-0.1-2.1,0.6-2.4,1.6c0,0.2,0,0.4,0.1,0.5s0.3,0.1,0.5,0c0.3-0.1,0.5-0.2,0.8-0.2c0.6-0.2,1.1,0.1,1.5,0.6
	c0.7,1.2-0.1,2.7-1.6,2.8c-1.1,0.1-1.9-0.5-2.6-1.2c-1.2-1.1-1.2-2.6-0.1-3.8c1.2-1.4,2.8-1.8,4.5-1.5s3,1.2,3.5,3
	c0.6,2.1-0.1,3.9-1.5,5.4c-0.1,0.1-0.3,0.2-0.4,0.3c-1.5,0.5-3.1,0.9-4.7,0.9c-3,0-5.9,0.1-8.8,0.6c-1.3,0.2-2.5,0.7-3.5,1.6
	c-0.2,0.1-0.4,0.5-0.3,0.6c0.1,0.2,0.4,0.2,0.6,0.3c0.1,0,0.1,0,0.2,0c1.1,0,2.1-0.1,3.2-0.1C8,36.3,11.1,36,14.1,36
	c3.4-0.1,6.7,0,10.1,0.1c0.9,0,1.7,0.1,2.6,0.2c1.3,0.1,2.6,0.4,4,0.4c1.3,0.1,2.4-0.4,3.1-1.6c0.3-0.5,0.3-0.9,0.1-1.4
	c-0.3-0.6-0.7-1.2-1-1.8c-0.9-1.5-1.9-3-2.8-4.6c-0.4-0.6-0.4-1.2-0.2-1.9c0.2-0.6,0.6-0.8,1.2-0.7c0.2,0.1,0.5,0.1,0.7,0.2
	c1.1,0.1,2.1,0.3,3.2,0.3c1.8-0.1,2.9-1.4,3.7-2.8C39.3,21.1,39.3,19.8,38.4,18.5z M35.3,18.3c-0.6,0.4-1.8,0.5-2.4,0
	c-0.2-0.2-0.3-0.4-0.3-0.6s0.1-0.3,0.3-0.4c0.1-0.1,0.3-0.3,0.7-0.3c0.2-0.1,0.5,0,0.6,0c0.2,0,0.4,0.1,0.5,0.1
	c0.3,0.1,0.4,0.1,0.6,0.2C35.7,17.6,35.7,18,35.3,18.3z"/>
</svg>
