<?xml version="1.0" encoding="utf-8"?>
<!-- Generator: Adobe Illustrator 26.0.1, SVG Export Plug-In . SVG Version: 6.00 Build 0)  -->
<svg version="1.1" id="Слой_1" xmlns="http://www.w3.org/2000/svg" xmlns:xlink="http://www.w3.org/1999/xlink" x="0px" y="0px"
	 viewBox="0 0 15.9 16" style="enable-background:new 0 0 15.9 16;" xml:space="preserve">
<style type="text/css">
	.st0{fill:#FFFFFF;}
</style>
<path class="st0" d="M13.3,1H2.6C1.7,1,0.9,1.7,0.9,2.7v10.7c0,0.9,0.7,1.7,1.7,1.7h10.7c0.9,0,1.7-0.7,1.7-1.7V2.7
	C14.9,1.7,14.2,1,13.3,1z M5.3,6.3v6.3h-2V6.3H5.3z M3.3,4.5c0-0.5,0.4-0.8,1-0.8s1,0.4,1,0.8c0,0.5-0.4,0.8-1,0.8
	C3.7,5.3,3.3,5,3.3,4.5z M12.6,12.7h-2c0,0,0-3.1,0-3.3c0-0.7-0.3-1.3-1.2-1.3h0C8.6,8,8.3,8.7,8.3,9.3c0,0.3,0,3.3,0,3.3h-2V6.3h2
	v0.9c0,0,0.6-0.9,1.9-0.9c1.3,0,2.4,0.9,2.4,2.8V12.7z"/>
</svg>
