<?xml version="1.0" encoding="utf-8"?>
<!-- Generator: Adobe Illustrator 26.0.1, SVG Export Plug-In . SVG Version: 6.00 Build 0)  -->
<svg version="1.1" id="Слой_1" xmlns="http://www.w3.org/2000/svg" xmlns:xlink="http://www.w3.org/1999/xlink" x="0px" y="0px"
	 viewBox="0 0 200 100" style="enable-background:new 0 0 200 100;" xml:space="preserve">
<style type="text/css">
	.st0{fill:#FFFFFF;}
	.st1{fill:#F99D1C;}
</style>
<text transform="matrix(1 0 0 1 -170.0865 116.3393)" style="font-family:'BlockTalk'; font-size:20px;">coreCARDS</text>
<text transform="matrix(1 0 0 1 -171.5522 133.165)" style="font-family:'BlockTalk'; font-size:20px;">CORE</text>
<text transform="matrix(1 0 0 1 -171.5522 143.0582)" style="font-family:'BlockTalk'; font-size:20px;">CARDS</text>
<text transform="matrix(1 0 0 1 -174.8265 177.8056)" style="font-family:'LubGrotto'; font-size:20px;">coreCARDS</text>
<text transform="matrix(1 0 0 1 -174.2866 205.4692)" style="font-family:'LubGrotto'; font-size:20px;">CORE</text>
<text transform="matrix(1 0 0 1 -174.2866 224.8297)" style="font-family:'LubGrotto'; font-size:20px;">CARDS</text>
<text transform="matrix(1 0 0 1 -55.0265 148.2864)" style="font-family:'EtcherSkeschRegular'; font-size:20px;">coreCARDS</text>
<text transform="matrix(1 0 0 1 -128.3531 -29.0789)" style="font-family:'EtcherSkeschRegular'; font-size:20px;">core</text>
<text transform="matrix(1 0 0 1 -127.6203 -13.6588)" style="font-family:'EtcherSkeschRegular'; font-size:20px;">cards</text>
<text transform="matrix(1 0 0 1 -57.9644 208.2716)" style="font-family:'HappyTalk'; font-size:20px;">coreCARDS</text>
<text transform="matrix(1 0 0 1 -57.9644 226.0426)" style="font-family:'HappyTalk'; font-size:20px;">core</text>
<text transform="matrix(1 0 0 1 -57.9644 235.9357)" style="font-family:'HappyTalk'; font-size:20px;">cards</text>
<text transform="matrix(1 0 0 1 81.9504 147.0576)" style="font-family:'CakarMonyetBold'; font-size:20px;">coreCARDS</text>
<g>
	<text transform="matrix(1 0 0 1 84.3321 167.8353)" style="font-family:'CakarMonyetBold'; font-size:20px;">core</text>
</g>
<text transform="matrix(1 0 0 1 84.3322 184.8055)" style="font-family:'CakarMonyetBold'; font-size:20px;">cards</text>
<text transform="matrix(1 0 0 1 79.0191 217.7745)" style="font-family:'FaerieMootOrnate'; font-size:20px;">coreCARDS</text>
<text transform="matrix(1 0 0 1 79.0191 235.5455)" style="font-family:'FaerieMootOrnate'; font-size:20px;">core</text>
<text transform="matrix(1 0 0 1 79.0191 245.4386)" style="font-family:'FaerieMootOrnate'; font-size:20px;">cards</text>
<text transform="matrix(1 0 0 1 79.0191 267.7897)" style="font-family:'FaerieMootOrnate'; font-size:20px;">CORE</text>
<text transform="matrix(1 0 0 1 79.0191 277.6829)" style="font-family:'FaerieMootOrnate'; font-size:20px;">cards</text>
<text transform="matrix(1 0 0 1 140.9427 240.4918)" style="font-family:'FaerieMootOrnate'; font-size:20px;">CORE</text>
<text transform="matrix(1 0 0 1 140.9427 250.3849)" style="font-family:'FaerieMootOrnate'; font-size:20px;">CARDS</text>
<text transform="matrix(1 0 0 1 229.9809 137.1647)" style="font-family:'FaerieMootSimple'; font-size:20px;">coreCARDS</text>
<text transform="matrix(1 0 0 1 229.9809 154.9357)" style="font-family:'FaerieMootSimple'; font-size:20px;">core</text>
<text transform="matrix(1 0 0 1 229.9809 164.8289)" style="font-family:'FaerieMootSimple'; font-size:20px;">cards</text>
<text transform="matrix(1 0 0 1 288.6069 160.6456)" style="font-family:'FaerieMootSimple'; font-size:20px;">CORE</text>
<text transform="matrix(1 0 0 1 288.6069 170.5387)" style="font-family:'FaerieMootSimple'; font-size:20px;">cards</text>
<text transform="matrix(1 0 0 1 288.6069 191.6074)" style="font-family:'FaerieMootSimple'; font-size:20px;">CORE</text>
<text transform="matrix(1 0 0 1 288.6069 201.5006)" style="font-family:'FaerieMootSimple'; font-size:20px;">CARDS</text>
<text transform="matrix(1 0 0 1 -231.8232 275.7366)" style="font-family:'SpaceMonkey-Bold'; font-size:20px;">coreCARDS</text>
<text transform="matrix(1 0 0 1 -216.224 39.0544)" style="font-family:'SpaceMonkey-Bold'; font-size:20px;">core</text>
<text transform="matrix(1 0 0 1 -216.7018 48.9476)" style="font-family:'SpaceMonkey-Bold'; font-size:20px;">cards</text>
<text transform="matrix(1 0 0 1 -107.9975 31.2489)" style="font-family:'MISTABIG'; font-size:20px;">coreCARDS</text>
<g>
	<g>
		<path d="M72.9,314.5c0,0.9,0,1.7-0.2,2.5c0.3-0.2,0.6-0.3,0.9-0.5c0,0.3,0,0.6,0.1,0.9s0.2,0.6,0.3,0.8c-0.4,0-0.7,0-1,0.1
			s-0.5,0.2-0.7,0.4c-0.1-0.1-0.3-0.1-0.4-0.2c0,0,0,0,0,0.1c0,0,0,0,0-0.1c-0.1-0.1-0.2-0.2-0.3-0.4c0.1-0.2,0.2-0.3,0.3-0.5
			c0-0.2,0-0.4-0.1-0.6c0.2-0.9,0.2-1.7,0.2-2.6c-0.1-0.5-0.1-0.8-0.3-1.3c-0.1-0.3-0.2-0.5-0.4-0.7c-0.1-0.1-0.3-0.2-0.4-0.2
			c-0.2,0.1-0.4,0.5-0.5,0.7c-0.2,0.4-0.2,0.9-0.3,1.3c-0.1,1.3,0.1,2.4,0.4,3.7c0.6,1.6,1.2,2.6,2.4,3.8c0.3,0.3,0.5,0.5,0.9,0.6
			c0.1,0.1,0.3,0.2,0.4,0.2h0.1c0.1-0.1,0.1-0.1,0.2-0.2c0.2-0.4,0.2-0.8,0.2-1.2c0-0.5-0.1-1-0.4-1.4c0.4,0.2,0.8,0.5,1.2,0.8
			c0.2-0.5,0.4-1,0.4-1.6c0.3,0.7,0.5,1.3,0.5,2.1c0,0.8-0.1,1.4-0.4,2c-0.2,0.4-0.4,0.6-0.7,0.8c-0.4,0.2-0.7,0.3-1.1,0.3
			c-0.5,0-0.8-0.2-1.2-0.4c-0.4-0.3-0.8-0.6-1.1-0.9c-1.3-1.4-2-2.7-2.6-4.5c-0.4-1.5-0.5-2.7-0.4-4.2c0.1-0.6,0.2-1.1,0.4-1.6
			c0.2-0.4,0.4-0.7,0.7-1c0.5-0.4,1.1-0.4,1.6-0.1s0.9,0.9,1.1,1.5C72.7,313.5,72.8,313.9,72.9,314.5z"/>
		<path d="M85.8,315.4c0.2,1.1,0.1,2-0.2,3.1c-0.4,1.1-0.9,1.8-1.8,2.6c-0.8,0.6-1.5,1-2.5,1.4c-0.7,0.3-1.3,0.4-2.1,0.6
			c-0.2,0-1.1,0-1.1-0.3c0-0.2,0.5-0.4,0.8-0.5c-0.7,0.1-1.3,0.1-2.1-0.1c-0.5-0.2-0.9-0.3-1.4-0.7c-0.5-0.4-0.8-0.7-1.1-1.3
			c-0.5-0.9-0.6-1.7-0.5-2.7c0.2-0.9,0.5-1.6,1.1-2.3c1.3-1.4,2.8-2.1,4.6-2.5c0.9-0.2,1.7-0.2,2.6-0.1s1.5,0.3,2.2,0.8
			C85.2,314,85.5,314.5,85.8,315.4z M81.9,320.9c-0.3-0.2-0.4-0.5-0.4-0.8l0,0c0,0.1,0,0.3,0.1,0.4
			C81.6,320.7,81.8,320.9,81.9,320.9c0.2,0,0.3,0,0.4,0c0.3-0.2,0.6-0.4,0.9-0.6l0.1-0.1c0-0.3-0.1-0.6-0.4-0.8
			c-0.1,0-0.1-0.1-0.2-0.1c0.2,0.1,0.4,0.2,0.5,0.5c0,0.1,0.1,0.3,0.1,0.4c0.6-0.6,1-1.2,1.3-2c0.2-0.9,0.3-1.6,0.1-2.5
			c-0.2-0.6-0.4-1-0.9-1.3c-0.5-0.4-1-0.5-1.7-0.6c-0.8-0.1-1.4,0-2.2,0.2c-1.5,0.4-2.8,1-3.8,2.2c-0.4,0.5-0.6,0.9-0.7,1.6
			s0.1,1.2,0.4,1.8c0.2,0.3,0.4,0.5,0.6,0.7c0.3,0.2,0.5,0.3,0.8,0.4c0.7,0.1,1.4,0.1,2.1-0.1s1.3-0.4,1.9-0.7
			c0.2-0.1,0.4-0.2,0.6-0.3c0,0,0,0,0.1,0c0,0-0.1,0-0.1,0.1l-0.1,0.1c-0.1,0.1-0.1,0.2-0.2,0.4v0.1l-0.1,0.1
			c-0.1,0.2-0.3,0.4-0.5,0.6c0.3,0,0.5,0.1,0.8,0.1C81.8,321,81.9,321,81.9,320.9C81.9,321,81.9,321,81.9,320.9z M78.3,318.7
			c0.2-0.9,0.2-1.7-0.1-2.5c0.3,0,0.6,0,0.9,0c0.3-0.1,0.6-0.2,0.9-0.3c0,1.2-0.2,2.2-0.9,3.2c-0.1,0-0.3,0-0.4-0.1
			C78.5,318.9,78.4,318.8,78.3,318.7z M80.1,318c0.6-0.9,0.9-1.8,0.9-2.9c0.3,0.1,0.6,0.2,0.8,0.3c0.3,0,0.6,0,0.9-0.1
			c-0.3,1.3-1,2.3-2,3.2c-0.2-0.1-0.3-0.1-0.5-0.2C80.3,318.3,80.2,318.1,80.1,318z M81.5,320.1c0-0.2,0.1-0.3,0.2-0.5l0.1-0.1
			l0.1-0.1v0.1C81.7,319.8,81.6,320,81.5,320.1z M81.8,319.5L81.8,319.5L81.8,319.5z M82.4,319.3L82.4,319.3L82.4,319.3z
			 M82.7,319.4c-0.1,0-0.2-0.1-0.3-0.1C82.5,319.3,82.6,319.3,82.7,319.4z"/>
		<path d="M92.6,321.7c-0.1,0.9,0,1.6,0.3,2.5c-0.1,0.2-0.2,0.3-0.2,0.5c-0.2,0-0.4,0-0.6-0.1c-0.6-1-0.8-1.8-0.8-2.9
			c0-0.6,0-1.1,0.1-1.6c-0.5,0.2-1,0.3-1.6,0.4c0.3,0.7,0.6,1.5,0.8,2.2c-0.2,0.2-0.5,0.3-0.8,0.3c-0.1-0.2-0.7-1.3-1.1-2.4
			c-0.7,0-1.5,0-2.2-0.1c0,0,0-0.1-0.1-0.1c-0.1-0.1-0.3-0.1-0.3-0.3c-0.1-0.2,0-0.3,0.1-0.5c0.5-0.2,1.1-0.5,1.6-0.7
			c-0.1-0.1-0.1-0.2-0.1-0.2c-0.2-0.5-1.6-2.8-2-3c0.3-0.2,0.5-0.3,0.8-0.4c0.2-0.2,0.4-0.4,0.7-0.5c0.1,0.3,1.4,2.6,1.7,3.5
			c0.2-0.1,0.4-0.3,0.6-0.5c0.3-0.3,0.5-0.6,0.7-1s0.2-0.7,0.2-1.1c0-0.8-0.2-1.4-0.7-2c-0.3-0.3-0.5-0.5-0.9-0.7s-0.7-0.3-1.1-0.4
			c-0.5-0.1-0.9,0-1.5,0.1c-0.7,0.2-1.2,0.4-1.8,0.7c0.1-0.4,0.2-0.8,0.3-1.1c-0.4-0.2-0.8-0.3-1.2-0.4c0.8-0.4,1.4-0.6,2.3-0.8
			c0.7-0.1,1.3-0.2,2,0c0.6,0.1,1.1,0.3,1.7,0.6c0.5,0.3,0.9,0.6,1.2,1.1c0.7,0.9,0.9,1.8,0.9,3c0,0.6-0.2,1-0.4,1.5
			c-0.3,0.5-0.6,0.9-1,1.3c-0.3,0.3-0.6,0.5-1,0.7v0.1c0.8-0.3,1.6-0.6,2.4-1.1c0.2-0.1,0.3-0.2,0.5-0.3c0,0.2,0.1,0.5,0.1,0.7
			c0,0,0.1,0.1,0.2,0.1c0.3,0,0.6,0,0.9-0.1C93,319.7,92.7,320.6,92.6,321.7z"/>
		<path d="M94,311.8c1.5,2,1.7,3.3,2.7,5.1c-0.3,0.1-0.6,0.1-0.9,0.1c-0.2,0.2-0.4,0.4-0.8,0.5c-0.1-1-1.6-3.9-2.2-4.8l-0.1-0.1
			c0,0.1-0.1,0.1-0.1,0.2c-0.4,1.2-0.4,2.8-0.3,4c0.1,0.8,0.2,1.3,0.5,2c0.3,0.5,0.5,0.8,0.9,1.2c0.3,0.2,0.5,0.4,0.9,0.5
			c0.1,0,0.2,0.1,0.3,0.1c0,0.2,0,0.4,0,0.5c-0.4,0.3-0.7,0.7-0.9,1.1l-0.1,0.1c0.3-0.2,0.6-0.3,0.9-0.4c1.2-0.5,2.2-0.6,3.5-0.4
			c-0.3,0.2-0.5,0.5-0.7,0.8c0.1,0.3,0.2,0.6,0.2,0.9c-0.9-0.3-1.6-0.2-2.5,0.1c-0.8,0.2-1.5,0.6-2.2,1.1c-0.1,0.1-0.2,0.1-0.3,0.1
			c-0.2,0-0.5-0.1-0.6-0.3c-0.1-0.1-0.1-0.2-0.1-0.4c0-0.5,0.2-0.8,0.4-1.2c0.3-0.5,0.8-1.1,1.2-1.6c-0.2-0.1-0.3-0.2-0.5-0.4
			c-0.5-0.4-0.9-0.8-1.2-1.4c-0.5-0.8-0.7-1.5-0.8-2.4c-0.2-1.5-0.3-3.1,0.1-4.5c0.1-0.3,0.2-0.5,0.3-0.7c0.4-0.5,1-0.7,1.6-0.4
			C93.6,311.4,93.8,311.5,94,311.8z"/>
		<path d="M100.4,314.5c0,0.9,0,1.7-0.2,2.5c0.3-0.2,0.6-0.3,0.9-0.5c0,0.3,0,0.6,0.1,0.9s0.2,0.6,0.3,0.8c-0.4,0-0.7,0-1,0.1
			s-0.5,0.2-0.7,0.4c-0.1-0.1-0.3-0.1-0.4-0.2c0,0,0,0,0,0.1c0,0,0,0,0-0.1c-0.1-0.1-0.2-0.2-0.3-0.4c0.1-0.2,0.2-0.3,0.3-0.5
			c0-0.2,0-0.4-0.1-0.6c0.2-0.9,0.2-1.7,0.2-2.6c-0.1-0.5-0.1-0.8-0.3-1.3c-0.1-0.3-0.2-0.5-0.4-0.7c-0.1-0.1-0.3-0.2-0.4-0.2
			c-0.2,0.1-0.4,0.5-0.5,0.7c-0.2,0.4-0.2,0.9-0.3,1.3c-0.1,1.3,0.1,2.4,0.4,3.7c0.6,1.6,1.2,2.6,2.4,3.8c0.3,0.3,0.5,0.5,0.9,0.6
			c0.1,0.1,0.3,0.2,0.4,0.2h0.1c0.1-0.1,0.1-0.1,0.2-0.2c0.2-0.4,0.2-0.8,0.2-1.2c0-0.5-0.1-1-0.4-1.4c0.4,0.2,0.8,0.5,1.2,0.8
			c0.2-0.5,0.4-1,0.4-1.6c0.3,0.7,0.5,1.3,0.5,2.1c0,0.8-0.1,1.4-0.4,2c-0.2,0.4-0.4,0.6-0.7,0.8c-0.4,0.2-0.7,0.3-1.1,0.3
			c-0.5,0-0.8-0.2-1.2-0.4c-0.4-0.3-0.8-0.6-1.1-0.9c-1.3-1.4-2-2.7-2.6-4.5c-0.4-1.5-0.5-2.7-0.4-4.2c0.1-0.6,0.2-1.1,0.4-1.6
			c0.2-0.4,0.4-0.7,0.7-1c0.5-0.4,1.1-0.4,1.6-0.1s0.9,0.9,1.1,1.5C100.3,313.5,100.3,313.9,100.4,314.5z"/>
		<path d="M103.8,311.1c1.4,3.4,2.9,6.9,4.3,10.3c0.4,0.2,0.9,0.4,1.5,0.7c-0.3,0.6-0.5,0.9-0.8,1.1c0,0.4,0,0.7,0.1,1.1
			c-0.3-0.3-0.5-0.5-0.8-0.8c-0.5,0.1-1.2,0.1-2.3,0.4c-0.3,0.1-2.7,0.8-2.8,1c-0.2-0.2-0.2-0.6-0.2-0.9c-0.3-0.2-0.6-0.4-0.9-0.5
			c0.9-0.6,2.5-0.9,3.5-1.1c0.4-0.1,0.9-0.2,1.4-0.3c-0.3-0.1-0.7-0.2-1.1-0.3c-1.4-0.1-2.8,0.2-4.1,0.5c-0.1-0.1-0.3-0.2-0.3-0.4
			c0-0.2,0-0.3,0.1-0.5c0.3-0.1,0.6-0.2,1-0.3c0.3-0.7,0.6-2.9,0.6-3.5c0.1-2-0.2-4.2-0.5-6.3c0-0.2,0-0.3,0.1-0.5
			c0.2-0.3,0.6-0.4,0.9-0.3C103.6,310.8,103.7,310.9,103.8,311.1z M106.9,320.9c-0.8-1.8-1.6-3.5-2.4-5.3c0.1,0.7,0.1,1.4,0.1,2.1
			c-0.1,1.3-0.2,2.1-0.4,3.1c0.6-0.1,1.2-0.1,1.8-0.1C106.3,320.8,106.6,320.9,106.9,320.9z"/>
		<path d="M116.2,321.7c-0.1,0.9,0,1.6,0.3,2.5c-0.1,0.2-0.2,0.3-0.2,0.5c-0.2,0-0.4,0-0.6-0.1c-0.6-1-0.8-1.8-0.8-2.9
			c0-0.6,0-1.1,0.1-1.6c-0.5,0.2-1,0.3-1.6,0.4c0.3,0.7,0.6,1.5,0.8,2.2c-0.2,0.2-0.5,0.3-0.8,0.3c-0.1-0.2-0.7-1.3-1.1-2.4
			c-0.7,0-1.5,0-2.2-0.1c0,0,0-0.1-0.1-0.1c-0.1-0.1-0.3-0.1-0.3-0.3c-0.1-0.2,0-0.3,0.1-0.5c0.5-0.2,1.1-0.5,1.6-0.7
			c-0.1-0.1-0.1-0.2-0.1-0.2c-0.2-0.5-1.6-2.8-2-3c0.3-0.2,0.5-0.3,0.8-0.4c0.2-0.2,0.4-0.4,0.7-0.5c0.1,0.3,1.4,2.6,1.7,3.5
			c0.2-0.1,0.4-0.3,0.6-0.5c0.3-0.3,0.5-0.6,0.7-1s0.2-0.7,0.2-1.1c0-0.8-0.2-1.4-0.7-2c-0.3-0.3-0.5-0.5-0.9-0.7s-0.7-0.3-1.1-0.4
			c-0.5-0.1-0.9,0-1.5,0.1c-0.7,0.2-1.2,0.4-1.8,0.7c0.1-0.4,0.2-0.8,0.3-1.1c-0.4-0.2-0.8-0.3-1.2-0.4c0.8-0.4,1.4-0.6,2.3-0.8
			c0.7-0.1,1.3-0.2,2,0c0.6,0.1,1.1,0.3,1.7,0.6c0.5,0.3,0.9,0.6,1.2,1.1c0.7,0.9,0.9,1.8,0.9,3c0,0.6-0.2,1-0.4,1.5
			c-0.3,0.5-0.6,0.9-1,1.3c-0.3,0.3-0.6,0.5-1,0.7v0.1c0.8-0.3,1.6-0.6,2.4-1.1c0.2-0.1,0.3-0.2,0.5-0.3c0,0.2,0.1,0.5,0.1,0.7
			c0,0,0.1,0.1,0.2,0.1c0.3,0,0.6,0,0.9-0.1C116.7,319.7,116.4,320.6,116.2,321.7z"/>
		<path d="M121.4,313.8c0.4,0.9,0.6,1.7,0.7,2.7c0.1,1.9-0.3,3.5-1.1,5.3c-0.4,0.8-0.8,1.7-1.3,2.3c-0.1,0.1-0.1,0.2-0.3,0.2
			c-0.3,0.1-0.7,0-0.8-0.3c-0.6-2.1-1.3-4.2-1.9-6.3c0-0.4,0-0.9,0-1.3c0.3,0.3,0.5,0.7,0.8,1c0.6,1.7,1.2,3.4,1.8,5.1
			c0.2-0.4,0.4-0.8,0.6-1.2c0.6-1.6,1-3,0.8-4.7c-0.1-0.8-0.2-1.4-0.6-2.1s-0.8-1.1-1.5-1.5c-0.6-0.4-1.6-0.4-1.9,0.3
			c-0.2,0.3-0.2,0.6-0.2,1c-0.3-0.4-0.5-0.8-0.6-1.2c-0.5,0.2-0.9,0.7-1.1,1.2c0-0.7,0.1-1.2,0.5-1.9c0.3-0.5,0.7-0.8,1.2-1.1
			c0.5-0.2,1-0.3,1.5-0.2c0.6,0.1,1,0.2,1.5,0.5C120.3,312.3,120.9,312.9,121.4,313.8z"/>
		<path d="M124,314c1.1,0.8,2,1.6,2.9,2.7c0.8,1.1,1.4,2,1.7,3.3c0.2,0.6,0.2,1.1,0.2,1.8c0,0.6-0.2,1.1-0.4,1.7c0,0,0,0.1-0.1,0.1
			c-0.2,0.3-0.4,0.4-0.7,0.6c-0.3,0.2-0.5,0.2-0.8,0.2c-0.6,0-1.1-0.1-1.7-0.4c-1.3-0.7-2.2-1.6-3.1-2.6c-0.6-0.7-1-1.4-1.3-2.2
			c-0.3-0.7-0.5-1.4-0.6-2.2c0-0.3,0-0.6,0.2-0.9s0.5-0.5,0.8-0.5c0.4,0,0.7,0,1,0.2h0.1c0.4,0.4,0.8,0.8,1.2,1.2
			c-0.5-0.2-1-0.4-1.5-0.4h-0.1c-0.2-0.1-0.4-0.1-0.6-0.1c-0.1,0-0.1,0-0.1,0.1c-0.1,0.1-0.1,0.3-0.1,0.5c0,0.6,0.3,1.2,0.5,1.8
			c0.3,0.7,0.7,1.3,1.2,1.9c0.8,0.9,1.7,1.7,2.8,2.3c0.3,0.2,0.7,0.3,1.1,0.2c0.2,0,0.4-0.1,0.5-0.3c0.2-0.4,0.2-0.8,0.3-1.2
			c0-0.5-0.1-0.9-0.2-1.4c-0.3-1.1-0.9-1.9-1.6-2.8c-0.8-0.9-1.6-1.6-2.6-2.3c-0.9-0.6-1.7-1-2.7-1.2c-0.3-0.1-0.6-0.3-0.6-0.6
			c-0.1-0.3,0-0.6,0.2-0.8c0.5-0.5,1-0.9,1.7-1.1c0.6-0.2,1.1-0.3,1.7-0.4c1,0,1.8,0.1,2.7,0.5c-0.6,0.1-1.2,0.2-1.8,0.4
			c0.4,0.3,0.9,0.7,1.1,1.2c-0.6-0.3-1.3-0.4-1.9-0.4c-0.4,0-0.7,0.1-1.1,0.2C123,313.3,123.5,313.6,124,314z M125.3,318
			c0.4,1,0.7,2,0.9,3c-0.1,0.1-0.2,0.2-0.4,0.3c-0.2,0-0.3,0-0.5,0c-0.4-0.9-1-1.7-1.6-2.5c0.3-0.1,0.6-0.2,0.9-0.3
			C124.8,318.4,125.1,318.2,125.3,318z"/>
	</g>
</g>
<g>
	<g>
		<path d="M72.9,332.2c0,0.9,0,1.7-0.2,2.5c0.3-0.2,0.6-0.3,0.9-0.5c0,0.3,0,0.6,0.1,0.9s0.2,0.6,0.3,0.8c-0.4,0-0.7,0-1,0.1
			s-0.5,0.2-0.7,0.4c-0.1-0.1-0.3-0.1-0.4-0.2c0,0,0,0,0,0.1c0,0,0,0,0-0.1c-0.1-0.1-0.2-0.2-0.3-0.4c0.1-0.2,0.2-0.3,0.3-0.5
			c0-0.2,0-0.4-0.1-0.6c0.2-0.9,0.2-1.7,0.2-2.6c-0.1-0.5-0.1-0.8-0.3-1.3c-0.1-0.3-0.2-0.5-0.4-0.7c-0.1-0.1-0.3-0.2-0.4-0.2
			c-0.2,0.1-0.4,0.5-0.5,0.7c-0.2,0.4-0.2,0.9-0.3,1.3c-0.1,1.3,0.1,2.4,0.4,3.7c0.6,1.6,1.2,2.6,2.4,3.8c0.3,0.3,0.5,0.5,0.9,0.6
			c0.1,0.1,0.3,0.2,0.4,0.2h0.1c0.1-0.1,0.1-0.1,0.2-0.2c0.2-0.4,0.2-0.8,0.2-1.2c0-0.5-0.1-1-0.4-1.4c0.4,0.2,0.8,0.5,1.2,0.8
			c0.2-0.5,0.4-1,0.4-1.6c0.3,0.7,0.5,1.3,0.5,2.1c0,0.8-0.1,1.4-0.4,2c-0.2,0.4-0.4,0.6-0.7,0.8c-0.4,0.2-0.7,0.3-1.1,0.3
			c-0.5,0-0.8-0.2-1.2-0.4c-0.4-0.3-0.8-0.6-1.1-0.9c-1.3-1.4-2-2.7-2.6-4.5c-0.4-1.5-0.5-2.7-0.4-4.2c0.1-0.6,0.2-1.1,0.4-1.6
			c0.2-0.4,0.4-0.7,0.7-1c0.5-0.4,1.1-0.4,1.6-0.1s0.9,0.9,1.1,1.5C72.7,331.2,72.8,331.7,72.9,332.2z"/>
		<path d="M85.8,333.2c0.2,1.1,0.1,2-0.2,3.1c-0.4,1.1-0.9,1.8-1.8,2.6c-0.8,0.6-1.5,1-2.5,1.4c-0.7,0.3-1.3,0.4-2.1,0.6
			c-0.2,0-1.1,0-1.1-0.3c0-0.2,0.5-0.4,0.8-0.5c-0.7,0.1-1.3,0.1-2.1-0.1c-0.5-0.2-0.9-0.3-1.4-0.7c-0.5-0.4-0.8-0.7-1.1-1.3
			c-0.5-0.9-0.6-1.7-0.5-2.7c0.2-0.9,0.5-1.6,1.1-2.3c1.3-1.4,2.8-2.1,4.6-2.5c0.9-0.2,1.7-0.2,2.6-0.1s1.5,0.3,2.2,0.8
			C85.2,331.7,85.5,332.3,85.8,333.2z M81.9,338.7c-0.3-0.2-0.4-0.5-0.4-0.8l0,0c0,0.1,0,0.3,0.1,0.4
			C81.6,338.5,81.8,338.6,81.9,338.7c0.2,0,0.3,0,0.4,0c0.3-0.2,0.6-0.4,0.9-0.6l0.1-0.1c0-0.3-0.1-0.6-0.4-0.8
			c-0.1,0-0.1-0.1-0.2-0.1c0.2,0.1,0.4,0.2,0.5,0.5c0,0.1,0.1,0.3,0.1,0.4c0.6-0.6,1-1.2,1.3-2c0.2-0.9,0.3-1.6,0.1-2.5
			c-0.2-0.6-0.4-1-0.9-1.3c-0.5-0.4-1-0.5-1.7-0.6c-0.8-0.1-1.4,0-2.2,0.2c-1.5,0.4-2.8,1-3.8,2.2c-0.4,0.5-0.6,0.9-0.7,1.6
			s0.1,1.2,0.4,1.8c0.2,0.3,0.4,0.5,0.6,0.7c0.3,0.2,0.5,0.3,0.8,0.4c0.7,0.1,1.4,0.1,2.1-0.1s1.3-0.4,1.9-0.7
			c0.2-0.1,0.4-0.2,0.6-0.3c0,0,0,0,0.1,0c0,0-0.1,0-0.1,0.1l-0.1,0.1c-0.1,0.1-0.1,0.2-0.2,0.4v0.1l-0.1,0.1
			c-0.1,0.2-0.3,0.4-0.5,0.6c0.3,0,0.5,0.1,0.8,0.1C81.8,338.7,81.9,338.7,81.9,338.7L81.9,338.7z M78.3,336.4
			c0.2-0.9,0.2-1.7-0.1-2.5c0.3,0,0.6,0,0.9,0c0.3-0.1,0.6-0.2,0.9-0.3c0,1.2-0.2,2.2-0.9,3.2c-0.1,0-0.3,0-0.4-0.1
			C78.5,336.6,78.4,336.5,78.3,336.4z M80.1,335.8c0.6-0.9,0.9-1.8,0.9-2.9c0.3,0.1,0.6,0.2,0.8,0.3c0.3,0,0.6,0,0.9-0.1
			c-0.3,1.3-1,2.3-2,3.2c-0.2-0.1-0.3-0.1-0.5-0.2C80.3,336,80.2,335.9,80.1,335.8z M81.5,337.9c0-0.2,0.1-0.3,0.2-0.5l0.1-0.1
			l0.1-0.1v0.1C81.7,337.6,81.6,337.8,81.5,337.9z M81.8,337.3L81.8,337.3L81.8,337.3z M82.4,337.1L82.4,337.1L82.4,337.1z
			 M82.7,337.1c-0.1,0-0.2-0.1-0.3-0.1C82.5,337.1,82.6,337.1,82.7,337.1z"/>
		<path d="M92.6,339.5c-0.1,0.9,0,1.6,0.3,2.5c-0.1,0.2-0.2,0.3-0.2,0.5c-0.2,0-0.4,0-0.6-0.1c-0.6-1-0.8-1.8-0.8-2.9
			c0-0.6,0-1.1,0.1-1.6c-0.5,0.2-1,0.3-1.6,0.4c0.3,0.7,0.6,1.5,0.8,2.2c-0.2,0.2-0.5,0.3-0.8,0.3c-0.1-0.2-0.7-1.3-1.1-2.4
			c-0.7,0-1.5,0-2.2-0.1c0,0,0-0.1-0.1-0.1c-0.1-0.1-0.3-0.1-0.3-0.3c-0.1-0.2,0-0.3,0.1-0.5c0.5-0.2,1.1-0.5,1.6-0.7
			c-0.1-0.1-0.1-0.2-0.1-0.2c-0.2-0.5-1.6-2.8-2-3c0.3-0.2,0.5-0.3,0.8-0.4c0.2-0.2,0.4-0.4,0.7-0.5c0.1,0.3,1.4,2.6,1.7,3.5
			c0.2-0.1,0.4-0.3,0.6-0.5c0.3-0.3,0.5-0.6,0.7-1s0.2-0.7,0.2-1.1c0-0.8-0.2-1.4-0.7-2c-0.3-0.3-0.5-0.5-0.9-0.7s-0.7-0.3-1.1-0.4
			c-0.5-0.1-0.9,0-1.5,0.1c-0.7,0.2-1.2,0.4-1.8,0.7c0.1-0.4,0.2-0.8,0.3-1.1c-0.4-0.2-0.8-0.3-1.2-0.4c0.8-0.4,1.4-0.6,2.3-0.8
			c0.7-0.1,1.3-0.2,2,0c0.6,0.1,1.1,0.3,1.7,0.6c0.5,0.3,0.9,0.6,1.2,1.1c0.7,0.9,0.9,1.8,0.9,3c0,0.6-0.2,1-0.4,1.5
			c-0.3,0.5-0.6,0.9-1,1.3c-0.3,0.3-0.6,0.5-1,0.7v0.1c0.8-0.3,1.6-0.6,2.4-1.1c0.2-0.1,0.3-0.2,0.5-0.3c0,0.2,0.1,0.5,0.1,0.7
			c0,0,0.1,0.1,0.2,0.1c0.3,0,0.6,0,0.9-0.1C93,337.4,92.7,338.4,92.6,339.5z"/>
		<path d="M94,329.5c1.5,2,1.7,3.3,2.7,5.1c-0.3,0.1-0.6,0.1-0.9,0.1c-0.2,0.2-0.4,0.4-0.8,0.5c-0.1-1-1.6-3.9-2.2-4.8l-0.1-0.1
			c0,0.1-0.1,0.1-0.1,0.2c-0.4,1.2-0.4,2.8-0.3,4c0.1,0.8,0.2,1.3,0.5,2c0.3,0.5,0.5,0.8,0.9,1.2c0.3,0.2,0.5,0.4,0.9,0.5
			c0.1,0,0.2,0.1,0.3,0.1c0,0.2,0,0.4,0,0.5c-0.4,0.3-0.7,0.7-0.9,1.1l-0.1,0.1c0.3-0.2,0.6-0.3,0.9-0.4c1.2-0.5,2.2-0.6,3.5-0.4
			c-0.3,0.2-0.5,0.5-0.7,0.8c0.1,0.3,0.2,0.6,0.2,0.9c-0.9-0.3-1.6-0.2-2.5,0.1c-0.8,0.2-1.5,0.6-2.2,1.1c-0.1,0.1-0.2,0.1-0.3,0.1
			c-0.2,0-0.5-0.1-0.6-0.3c-0.1-0.1-0.1-0.2-0.1-0.4c0-0.5,0.2-0.8,0.4-1.2c0.3-0.5,0.8-1.1,1.2-1.6c-0.2-0.1-0.3-0.2-0.5-0.4
			c-0.5-0.4-0.9-0.8-1.2-1.4c-0.5-0.8-0.7-1.5-0.8-2.4c-0.2-1.5-0.3-3.1,0.1-4.5c0.1-0.3,0.2-0.5,0.3-0.7c0.4-0.5,1-0.7,1.6-0.4
			C93.6,329.1,93.8,329.3,94,329.5z"/>
	</g>
</g>
<g>
	<g>
		<path d="M72.9,342.1c0,0.9,0,1.7-0.2,2.5c0.3-0.2,0.6-0.3,0.9-0.5c0,0.3,0,0.6,0.1,0.9s0.2,0.6,0.3,0.8c-0.4,0-0.7,0-1,0.1
			s-0.5,0.2-0.7,0.4c-0.1-0.1-0.3-0.1-0.4-0.2c0,0,0,0,0,0.1c0,0,0,0,0-0.1c-0.1-0.1-0.2-0.2-0.3-0.4c0.1-0.2,0.2-0.3,0.3-0.5
			c0-0.2,0-0.4-0.1-0.6c0.2-0.9,0.2-1.7,0.2-2.6c-0.1-0.5-0.1-0.8-0.3-1.3c-0.1-0.3-0.2-0.5-0.4-0.7c-0.1-0.1-0.3-0.2-0.4-0.2
			c-0.2,0.1-0.4,0.5-0.5,0.7c-0.2,0.4-0.2,0.9-0.3,1.3c-0.1,1.3,0.1,2.4,0.4,3.7c0.6,1.6,1.2,2.6,2.4,3.8c0.3,0.3,0.5,0.5,0.9,0.6
			c0.1,0.1,0.3,0.2,0.4,0.2h0.1c0.1-0.1,0.1-0.1,0.2-0.2c0.2-0.4,0.2-0.8,0.2-1.2c0-0.5-0.1-1-0.4-1.4c0.4,0.2,0.8,0.5,1.2,0.8
			c0.2-0.5,0.4-1,0.4-1.6c0.3,0.7,0.5,1.3,0.5,2.1c0,0.8-0.1,1.4-0.4,2c-0.2,0.4-0.4,0.6-0.7,0.8c-0.4,0.2-0.7,0.3-1.1,0.3
			c-0.5,0-0.8-0.2-1.2-0.4c-0.4-0.3-0.8-0.6-1.1-0.9c-1.3-1.4-2-2.7-2.6-4.5c-0.4-1.5-0.5-2.7-0.4-4.2c0.1-0.6,0.2-1.1,0.4-1.6
			c0.2-0.4,0.4-0.7,0.7-1c0.5-0.4,1.1-0.4,1.6-0.1s0.9,0.9,1.1,1.5C72.7,341.1,72.8,341.6,72.9,342.1z"/>
		<path d="M76.3,338.7c1.4,3.4,2.9,6.9,4.3,10.3c0.4,0.2,0.9,0.4,1.5,0.7c-0.3,0.6-0.5,0.9-0.8,1.1c0,0.4,0,0.7,0.1,1.1
			c-0.3-0.3-0.5-0.5-0.8-0.8c-0.5,0.1-1.2,0.1-2.3,0.4c-0.3,0.1-2.7,0.8-2.8,1c-0.2-0.2-0.2-0.6-0.2-0.9c-0.3-0.2-0.6-0.4-0.9-0.5
			c0.9-0.6,2.5-0.9,3.5-1.1c0.4-0.1,0.9-0.2,1.4-0.3c-0.3-0.1-0.7-0.2-1.1-0.3c-1.4-0.1-2.8,0.2-4.1,0.5c-0.1-0.1-0.3-0.2-0.3-0.4
			c0-0.2,0-0.3,0.1-0.5c0.3-0.1,0.6-0.2,1-0.3c0.3-0.7,0.6-2.9,0.6-3.5c0.1-2-0.2-4.2-0.5-6.3c0-0.2,0-0.3,0.1-0.5
			c0.2-0.3,0.6-0.4,0.9-0.3C76.1,338.5,76.2,338.6,76.3,338.7z M79.4,348.6c-0.8-1.8-1.6-3.5-2.4-5.3c0.1,0.7,0.1,1.4,0.1,2.1
			c-0.1,1.3-0.2,2.1-0.4,3.1c0.6-0.1,1.2-0.1,1.8-0.1C78.8,348.5,79.1,348.5,79.4,348.6z"/>
		<path d="M88.7,349.4c-0.1,0.9,0,1.6,0.3,2.5c-0.1,0.2-0.2,0.3-0.2,0.5c-0.2,0-0.4,0-0.6-0.1c-0.6-1-0.8-1.8-0.8-2.9
			c0-0.6,0-1.1,0.1-1.6c-0.5,0.2-1,0.3-1.6,0.4c0.3,0.7,0.6,1.5,0.8,2.2c-0.2,0.2-0.5,0.3-0.8,0.3c-0.1-0.2-0.7-1.3-1.1-2.4
			c-0.7,0-1.5,0-2.2-0.1c0,0,0-0.1-0.1-0.1c-0.1-0.1-0.3-0.1-0.3-0.3c-0.1-0.2,0-0.3,0.1-0.5c0.5-0.2,1.1-0.5,1.6-0.7
			c-0.1-0.1-0.1-0.2-0.1-0.2c-0.2-0.5-1.6-2.8-2-3c0.3-0.2,0.5-0.3,0.8-0.4c0.2-0.2,0.4-0.4,0.7-0.5c0.1,0.3,1.4,2.6,1.7,3.5
			c0.2-0.1,0.4-0.3,0.6-0.5c0.3-0.3,0.5-0.6,0.7-1s0.2-0.7,0.2-1.1c0-0.8-0.2-1.4-0.7-2c-0.3-0.3-0.5-0.5-0.9-0.7s-0.7-0.3-1.1-0.4
			c-0.5-0.1-0.9,0-1.5,0.1c-0.7,0.2-1.2,0.4-1.8,0.7c0.1-0.4,0.2-0.8,0.3-1.1c-0.4-0.2-0.8-0.3-1.2-0.4c0.8-0.4,1.4-0.6,2.3-0.8
			c0.7-0.1,1.3-0.2,2,0c0.6,0.1,1.1,0.3,1.7,0.6c0.5,0.3,0.9,0.6,1.2,1.1c0.7,0.9,0.9,1.8,0.9,3c0,0.6-0.2,1-0.4,1.5
			c-0.3,0.5-0.6,0.9-1,1.3c-0.3,0.3-0.6,0.5-1,0.7v0.1c0.8-0.3,1.6-0.6,2.4-1.1c0.2-0.1,0.3-0.2,0.5-0.3c0,0.2,0.1,0.5,0.1,0.7
			c0,0,0.1,0.1,0.2,0.1c0.3,0,0.6,0,0.9-0.1C89.2,347.3,88.9,348.3,88.7,349.4z"/>
		<path d="M93.9,341.5c0.4,0.9,0.6,1.7,0.7,2.7c0.1,1.9-0.3,3.5-1.1,5.3c-0.4,0.8-0.8,1.7-1.3,2.3c-0.1,0.1-0.1,0.2-0.3,0.2
			c-0.3,0.1-0.7,0-0.8-0.3c-0.6-2.1-1.3-4.2-1.9-6.3c0-0.4,0-0.9,0-1.3c0.3,0.3,0.5,0.7,0.8,1c0.6,1.7,1.2,3.4,1.8,5.1
			c0.2-0.4,0.4-0.8,0.6-1.2c0.6-1.6,1-3,0.8-4.7c-0.1-0.8-0.2-1.4-0.6-2.1s-0.8-1.1-1.5-1.5c-0.6-0.4-1.6-0.4-1.9,0.3
			c-0.2,0.3-0.2,0.6-0.2,1c-0.3-0.4-0.5-0.8-0.6-1.2c-0.5,0.2-0.9,0.7-1.1,1.2c0-0.7,0.1-1.2,0.5-1.9c0.3-0.5,0.7-0.8,1.2-1.1
			c0.5-0.2,1-0.3,1.5-0.2c0.6,0.1,1,0.2,1.5,0.5C92.8,339.9,93.3,340.5,93.9,341.5z"/>
		<path d="M96.5,341.7c1.1,0.8,2,1.6,2.9,2.7c0.8,1.1,1.4,2,1.7,3.3c0.2,0.6,0.2,1.1,0.2,1.8c0,0.6-0.2,1.1-0.4,1.7
			c0,0,0,0.1-0.1,0.1c-0.2,0.3-0.4,0.4-0.7,0.6c-0.3,0.2-0.5,0.2-0.8,0.2c-0.6,0-1.1-0.1-1.7-0.4c-1.3-0.7-2.2-1.6-3.1-2.6
			c-0.6-0.7-1-1.4-1.3-2.2c-0.3-0.7-0.5-1.4-0.6-2.2c0-0.3,0-0.6,0.2-0.9s0.5-0.5,0.8-0.5c0.4,0,0.7,0,1,0.2h0.1
			c0.4,0.4,0.8,0.8,1.2,1.2c-0.5-0.2-1-0.4-1.5-0.4h-0.1c-0.2-0.1-0.4-0.1-0.6-0.1c-0.1,0-0.1,0-0.1,0.1c-0.1,0.1-0.1,0.3-0.1,0.5
			c0,0.6,0.3,1.2,0.5,1.8c0.3,0.7,0.7,1.3,1.2,1.9c0.8,0.9,1.7,1.7,2.8,2.3c0.3,0.2,0.7,0.3,1.1,0.2c0.2,0,0.4-0.1,0.5-0.3
			c0.2-0.4,0.2-0.8,0.3-1.2c0-0.5-0.1-0.9-0.2-1.4c-0.3-1.1-0.9-1.9-1.6-2.8c-0.8-0.9-1.6-1.6-2.6-2.3c-0.9-0.6-1.7-1-2.7-1.2
			c-0.3-0.1-0.6-0.3-0.6-0.6c-0.1-0.3,0-0.6,0.2-0.8c0.5-0.5,1-0.9,1.7-1.1c0.6-0.2,1.1-0.3,1.7-0.4c1,0,1.8,0.1,2.7,0.5
			c-0.6,0.1-1.2,0.2-1.8,0.4c0.4,0.3,0.9,0.7,1.1,1.2c-0.6-0.3-1.3-0.4-1.9-0.4c-0.4,0-0.7,0.1-1.1,0.2
			C95.4,341,96,341.3,96.5,341.7z M97.8,345.7c0.4,1,0.7,2,0.9,3c-0.1,0.1-0.2,0.2-0.4,0.3c-0.2,0-0.3,0-0.5,0
			c-0.4-0.9-1-1.7-1.6-2.5c0.3-0.1,0.6-0.2,0.9-0.3C97.3,346,97.6,345.9,97.8,345.7z"/>
	</g>
</g>
<text transform="matrix(1 0 0 1 -278.2648 122.6899)" style="font-family:'SpotMonkey'; font-size:20px;">coreCARDS</text>
<text transform="matrix(1 0 0 1 -278.2648 140.4609)" style="font-family:'SpotMonkey'; font-size:20px;">core</text>
<text transform="matrix(1 0 0 1 -278.2648 150.3541)" style="font-family:'SpotMonkey'; font-size:20px;">cards</text>
<text transform="matrix(1 0 0 1 -278.2648 172.7052)" style="font-family:'SpotMonkey'; font-size:20px;">CORE</text>
<text transform="matrix(1 0 0 1 -278.2648 182.5983)" style="font-family:'SpotMonkey'; font-size:20px;">cards</text>
<text transform="matrix(1 0 0 1 -278.2648 203.6671)" style="font-family:'SpotMonkey'; font-size:20px;">CORE</text>
<text transform="matrix(1 0 0 1 -278.2648 213.5602)" style="font-family:'SpotMonkey'; font-size:20px;">CARDS</text>
<text transform="matrix(1 0 0 1 -168.2037 -148.6255)" class="st0" style="font-family:'MISTABIG'; font-size:65px;">core</text>
<text transform="matrix(1 0 0 1 -186.4679 -110.1561)" class="st0" style="font-family:'MISTABIG'; font-size:50px;">cards</text>
<path class="st0" d="M19.8-102.4c-1.8,1.7-4,2.2-6.3,2.4c-5.1,0.3-10.1,0.6-15.2,0.7c-10.3,0-20.5-0.1-30.8-0.2
	c-11.6,0-23.2,0-34.7,0c-5.9,0-11.8,0-17.6-0.1c-3.6-0.1-7.2-0.4-10.6-1.5c-1.8-0.6-3.4-1.3-4.7-2.7c0-0.8,0-1.6,0-2.4
	c1.9-1.5,3.9-1,6-0.7c9.6,1.8,19.2,1.9,28.9,1.5c4.3-0.2,8.5-0.7,12.7-0.9c5.2-0.2,10.4,0.4,15.6,1.2c5.3,0.9,10.6,0.8,15.9-0.2
	c6.4-1.2,12.6-1.3,19,0.3c4.9,1.3,9.9,1,14.8-0.5c1.5-0.5,3-0.8,4.5-0.3c1,0.4,1.8,1,2.7,1.5C19.8-103.6,19.8-103,19.8-102.4z"/>
<g>
	<g>
		<path class="st1" d="M50.8,24.1c0.5,1.7,0.8,3.3,0.9,5c0.1,1.7,0,3.4-0.3,5c-0.5,2.8-1.6,5.6-3.1,8.2c-0.6,1-1.2,1.9-2,2.9
			c-0.8,0.9-1.6,1.7-2.5,2.5c-0.4,0.3-0.9,0.6-1.3,0.9c-0.5,0.4-1,0.6-1.5,0.8c-0.3,0.1-0.6,0.2-0.8,0.3c-0.3,0.1-0.6,0.2-0.9,0.2
			c-0.9,0.1-1.8,0.1-2.7,0c-0.7-0.1-1.3-0.2-2-0.4s-1.3-0.4-2-0.6c-0.4-0.2-0.9-0.4-1.3-0.6c-0.5-0.2-0.9-0.5-1.3-0.8
			c-0.9-0.6-1.6-1.3-2.3-2c-0.4-0.4-0.7-0.8-1-1.2s-0.6-0.8-0.9-1.2c-0.6-0.8-1-1.7-1.5-2.6c-0.4-0.9-0.8-1.8-1.1-2.8
			c-0.7-2-1.1-4.1-1.4-6.1c-0.3-2.1-0.4-4.2-0.3-6.3c0-1.9,0.2-3.8,0.6-5.7c0.3-1.9,0.9-3.7,1.7-5.5c0.4-0.8,0.8-1.6,1.2-2.3
			c0.5-0.7,1-1.4,1.7-2c0.4-0.4,0.9-0.7,1.3-1c0.5-0.3,0.9-0.6,1.4-0.9c0.5-0.3,1-0.6,1.6-0.8c0.6-0.2,1.1-0.4,1.7-0.4
			c0.8-0.1,1.5-0.2,2.3-0.1c0.8,0,1.5,0.1,2.3,0.4c0.7,0,1.3,0.3,1.9,0.5c0.1-0.3,0.3-0.5,0.5-0.7c0.3-0.1,0.6-0.2,0.8-0.3
			c0.4-0.1,0.9-0.1,1.3-0.1c0.5,0,0.9,0.1,1.3,0.2C43.5,6.7,44,6.9,44.4,7c0.4,0.2,0.8,0.4,1.1,0.7c0.2,0.2,0.4,0.4,0.6,0.7
			c0.2,0.3,0.2,0.5,0.1,0.9L46,10.7l-2.3,8.5c-0.1,0.3-0.3,0.5-0.5,0.7c-0.3,0.1-0.6,0.2-0.8,0.3c-0.4,0.1-0.9,0.2-1.3,0.1
			c-0.5,0-0.9-0.1-1.3-0.2c-1-0.3-1.8-0.7-2.4-1.2c-0.3-0.3-0.6-0.6-0.7-1.1v-0.5c0-0.2,0.1-0.4,0.1-0.6s0-0.4,0-0.6
			c0-0.9-0.1-1.7-0.2-2.6c-0.1-0.9-0.3-1.7-0.7-2.6c-0.2,0.1-0.5,0.3-0.7,0.4c-0.3,0.2-0.5,0.3-0.7,0.5c-0.6,0.4-1.1,0.9-1.5,1.5
			c-0.5,0.5-0.9,1.1-1.2,1.7c-0.2,0.2-0.3,0.5-0.4,0.7c-0.1,0.3-0.2,0.5-0.4,0.7c-0.8,1.7-1.3,3.5-1.6,5.4c-0.3,1.9-0.4,3.8-0.4,5.7
			c0,0.4,0,0.7,0,1.1s0,0.7,0.1,1.1c0.1,1.9,0.4,3.9,0.8,5.7c0.4,1.9,1,3.7,1.8,5.5c0.3,0.7,0.7,1.3,1,1.9c0.4,0.6,0.8,1.2,1.3,1.7
			c0.2,0.2,0.3,0.3,0.5,0.5s0.4,0.3,0.6,0.5c0.1,0.1,0.2,0.1,0.2,0.1c0.1,0,0.2,0.1,0.2,0.1l0.1,0.1h0.1c0.3-0.1,0.5-0.2,0.8-0.4
			c0.2-0.1,0.5-0.3,0.7-0.5c0.9-0.7,1.8-1.5,2.6-2.4s1.5-1.9,2-2.9c0.9-1.7,1.6-3.4,2.2-5.3c0.5-1.9,0.8-3.7,0.9-5.6
			c-0.1-1.9-0.4-3.8-0.9-5.6c-0.1-0.3,0-0.5,0.1-0.8c0.2-0.2,0.4-0.4,0.6-0.5c0.4-0.2,0.7-0.3,1.2-0.3c0.4,0,0.8,0,1.2,0
			c0.5,0.1,0.9,0.2,1.4,0.3c0.5,0.1,0.9,0.3,1.3,0.6c0.3,0.2,0.6,0.4,0.9,0.7C50.5,23.5,50.7,23.8,50.8,24.1z"/>
		<path class="st1" d="M73.5,18.5c0.2,1.1,0.3,2.3,0.3,3.4s0,2.3,0,3.4c0,1.5-0.1,3-0.2,4.4c-0.1,1.5-0.2,2.9-0.4,4.4
			c-0.2,1.1-0.4,2.2-0.6,3.3s-0.5,2.2-0.9,3.2c-0.3,0.9-0.6,1.7-0.9,2.5c-0.4,0.8-0.8,1.6-1.3,2.3c-0.8,1.2-1.8,2.1-2.9,2.8
			c-0.6,0.4-1.3,0.7-2,0.9c-0.7,0.2-1.4,0.3-2.1,0.3c-1.9,0.1-3.8-0.3-5.6-1.2c-0.8-0.4-1.5-0.8-2.2-1.3s-1.3-1-1.9-1.6
			c-1.2-1.2-2.2-2.4-3-3.7c-0.9-1.5-1.7-3.1-2.3-4.7c-0.6-1.6-1.1-3.3-1.5-5.1c-0.4-1.9-0.7-3.8-0.7-5.7c-0.1-1.4-0.1-2.9,0-4.3
			s0.2-2.9,0.5-4.2c0.4-2.1,1.1-4,2.2-5.8c0.2-0.3,0.4-0.6,0.6-0.9c0.2-0.3,0.5-0.6,0.7-0.9c0.3-0.3,0.6-0.6,0.9-0.9
			c0.3-0.3,0.7-0.5,1-0.7c0.6-0.4,1.2-0.7,1.9-1s1.3-0.5,2-0.6c1.3-0.3,2.5-0.4,3.8-0.4c0.7,0,1.4,0.1,2.1,0.2
			c0.7,0.1,1.3,0.2,2,0.3c0.4,0.1,0.7,0.2,0.8,0.2c0.4,0.2,0.9,0.3,1.3,0.5s0.8,0.4,1.2,0.7c0.2,0.3,0.5,0.6,0.7,0.8
			c0.9,0.4,1.7,0.9,2.5,1.5s1.5,1.3,2,2.1c0.6,0.8,1,1.7,1.4,2.7C73.1,16.5,73.4,17.5,73.5,18.5z M64.9,37.7
			c0.7-2.6,1.2-5.2,1.4-7.9c0.2-2.6,0.4-5.3,0.4-8c0-1.3-0.1-2.6-0.3-3.9c-0.1-1.3-0.5-2.6-1-3.8c-0.2-0.5-0.5-0.9-0.9-1.4
			c-0.2-0.2-0.3-0.3-0.4-0.4H64h-0.8c-0.3,0.1-0.6,0.1-0.9,0.2c-0.3,0.1-0.6,0.1-0.9,0.2c-0.4,0.1-0.9,0.1-1.4,0.1
			c-0.5-0.1-0.9-0.1-1.3-0.3c-0.6-0.1-1.1-0.3-1.6-0.6c-1,0.8-1.8,1.7-2.4,2.7c-0.9,1.7-1.5,3.4-1.8,5.2s-0.4,3.7-0.4,5.5
			c0,0.7,0,1.3,0.1,2c0,0.7,0.1,1.3,0.2,2c0.2,1.7,0.5,3.4,0.9,5.1s1,3.3,1.7,4.9c0.4,0.8,0.8,1.6,1.3,2.4c0.5,0.8,1,1.5,1.6,2.2
			c0.2,0.2,0.5,0.5,0.7,0.7s0.4,0.4,0.7,0.6c0.1,0.1,0.2,0.2,0.4,0.2H60c0.4-0.2,0.7-0.3,0.9-0.5c0.5-0.4,0.9-0.8,1.2-1.2
			c0.4-0.5,0.7-0.9,1-1.4C63.9,40.9,64.5,39.4,64.9,37.7z"/>
		<path class="st1" d="M93.3,19.2c-0.9,0.4-1.8,0.8-2.8,1s-1.9,0.4-2.9,0.4c-0.8,0.1-1.6,0.1-2.4,0.2s-1.6,0.1-2.4,0.1l0.9,1.6
			l5,9.4c0.9,1.6,1.7,3.2,2.6,4.8c0.8,1.6,1.7,3.2,2.6,4.8c0.4,0.8,0.8,1.5,1.2,2.2c0.4,0.7,0.8,1.5,1.2,2.2
			c0.2,0.2,0.3,0.5,0.3,0.7c0,0.3-0.1,0.5-0.3,0.7c-0.2,0.3-0.5,0.5-0.9,0.5c-0.4,0.1-0.7,0.1-1,0.1c-1,0-1.9-0.2-2.8-0.5
			c-0.6-0.2-1-0.5-1.4-0.9c-0.2-0.2-0.4-0.4-0.5-0.5c-0.4-0.6-0.7-1.3-1-1.9c-0.3-0.6-0.7-1.3-1-1.9c-0.8-1.6-1.7-3.2-2.5-4.7
			c-0.8-1.6-1.7-3.1-2.5-4.7c-0.4-0.8-0.9-1.6-1.3-2.3c-0.4-0.8-0.8-1.6-1.3-2.3c0.1,1,0.1,2.1,0.1,3.1c0,1,0.1,2.1,0.1,3.1
			c0.1,1.6,0.1,3.2,0.2,4.8s0.1,3.2,0.2,4.9c0,0.7,0.1,1.4,0.1,2c0,0.7,0,1.4,0.1,2.1c0.1,0.4,0,0.7-0.2,0.9
			c-0.2,0.1-0.4,0.2-0.5,0.3c-0.4,0.2-0.8,0.3-1.2,0.3c-0.4,0-0.8,0-1.2-0.1c-1-0.1-1.9-0.4-2.7-0.9c-0.5-0.3-0.8-0.6-1.1-1
			c0-0.1-0.1-0.2-0.1-0.3s-0.1-0.2-0.1-0.3c0-0.4-0.1-0.9-0.1-1.3c0-0.5,0-0.9-0.1-1.4l-0.4-8.9C73.1,33.6,73,31.8,73,30
			c-0.1-1.8-0.2-3.7-0.2-5.5c0-0.9-0.1-1.9-0.1-2.8s-0.1-1.9-0.1-2.8H72c-0.9-0.1-1.8-0.4-2.7-0.9c-0.3-0.2-0.6-0.4-0.9-0.7
			c-0.3-0.2-0.4-0.5-0.5-0.8s0-0.6,0.1-0.8c0.2-0.2,0.4-0.4,0.6-0.5c0.3-0.2,0.6-0.2,0.9-0.3c0.3,0,0.6,0,0.9,0h0.3
			c0.1,0,0.1,0,0.2,0c0,0,0.1,0,0.2,0s0.2-0.1,0.2-0.1c0.1,0,0.2-0.1,0.2-0.1c0.2-0.2,0.3-0.4,0.4-0.5c0-0.1,0.1-0.2,0.1-0.3
			s0.1-0.2,0.1-0.3V13v-1v-0.1c0.2-0.4,0.5-0.7,0.9-0.9c0.5-0.1,0.9-0.2,1.3-0.2c0.8,0,1.6,0.1,2.3,0.3c0.8,0.3,1.4,0.6,2,1.1
			c0.2,0.2,0.4,0.4,0.5,0.5c0,0,0,0,0.1,0.2s0.1,0.3,0.1,0.4c0.1,0.3,0.1,0.6,0.1,1c0,0.3,0,0.7-0.1,1c0,0,0,0.1-0.1,0.1
			c0,0.2,0.1,0.5,0.1,0.7c0,0.3,0,0.5,0,0.7c1.3,0,2.6-0.1,3.9-0.2c0.6-0.1,1.1-0.2,1.7-0.2c0.6-0.1,1.1-0.2,1.7-0.4
			c0.3-0.1,0.6-0.2,0.9-0.3s0.6-0.3,0.8-0.4c0.4-0.3,0.7-0.6,0.9-0.9c0.2-0.4,0.3-0.8,0.4-1.2c0-0.1-0.1-0.2-0.1-0.3s0-0.2-0.1-0.3
			l-0.1-0.2c0,0-0.1,0-0.2-0.1L89,12.2c0,0-0.1,0-0.1-0.1c-0.2,0-0.4-0.1-0.7-0.3c-0.3-0.1-0.7-0.2-1-0.2c-0.4-0.1-0.7-0.2-1.1-0.2
			c-1-0.2-2.1-0.3-3.1-0.4c-1-0.1-2.1-0.2-3.2-0.3c-0.2,0-0.5-0.1-0.9-0.1c-1,0-2-0.1-3.1-0.1c-1,0-2,0-3.1,0.1
			c-0.9,0-1.9-0.2-2.8-0.6c-0.4-0.2-0.7-0.3-1-0.6c-0.3-0.2-0.6-0.5-0.9-0.8c-0.2-0.2-0.2-0.5-0.3-0.8c0-0.3,0.1-0.5,0.3-0.7
			c0.2-0.3,0.5-0.5,0.9-0.5c0.4-0.1,0.7-0.1,1-0.1c2-0.1,4-0.1,6,0C77,6.6,78,6.6,79.1,6.7s2.1,0.1,3.2,0.3c1.1,0.1,2.1,0.3,3.2,0.4
			c1,0.2,2.1,0.4,3.1,0.7c1.1,0.3,2.2,0.7,3.3,1.2c1.1,0.5,2,1.1,2.9,1.9c0.7,0.6,1.3,1.3,1.7,2.3c0.2,0.4,0.2,0.7,0.2,1.1
			s0,0.8-0.1,1.1c-0.2,0.9-0.6,1.7-1.3,2.3C94.8,18.3,94.1,18.8,93.3,19.2z"/>
		<path class="st1" d="M128.1,22.7c0,2.7,0,5.4-0.2,8.1s-0.6,5.3-1.3,7.9c-0.2,0.9-0.5,1.7-0.8,2.5s-0.7,1.6-1.1,2.4
			c-0.4,0.7-0.8,1.3-1.2,1.9c-0.4,0.6-0.9,1.2-1.5,1.7c-0.3,0.2-0.6,0.5-0.9,0.7s-0.6,0.4-0.9,0.6c-0.3,0.2-0.7,0.4-1,0.5
			c-0.4,0.1-0.7,0.2-1.1,0.4c-0.8,0.2-1.5,0.3-2.3,0.4c-0.8,0-1.6,0-2.4-0.1c-1.7-0.2-3.3-0.7-4.8-1.4s-3-1.6-4.3-2.6
			c-1.1-0.9-2.1-1.9-2.9-3c-0.4-0.4-0.7-0.9-1-1.4s-0.6-1-0.9-1.6s-0.6-1.2-0.8-1.8c-0.2-0.6-0.4-1.2-0.6-1.9
			c-0.2-1.1-0.4-2.2-0.4-3.3c0-1.1,0.1-2.2,0.4-3.2c0.5-2.1,1.5-3.9,3-5.6c0.5-0.6,1.1-1.1,1.7-1.7c0.6-0.5,1.2-1,1.9-1.4
			c-0.2,0-0.5-0.1-0.7-0.1s-0.4-0.1-0.7-0.2c-0.6-0.2-1.3-0.4-2.1-0.7c-0.4-0.2-0.8-0.4-1.2-0.6c-0.4-0.2-0.7-0.5-1.1-0.7
			c-1.1-0.8-1.8-1.8-2.1-3c-0.1-0.5-0.2-1-0.2-1.5c0-0.4,0-0.7,0-1s0-0.7,0.1-1c0.2-0.8,0.6-1.6,1.2-2.2c0.6-0.6,1.3-1.1,2-1.5
			c1-0.5,2-0.8,3.1-1s2.1-0.4,3.2-0.4s2.1-0.1,3.2-0.1s2.2,0,3.2,0.1c2.2,0.1,4.4,0.4,6.5,0.7c0.5,0.1,1,0.2,1.4,0.3
			c0.4,0.1,0.9,0.3,1.3,0.6c0.3,0.2,0.6,0.4,0.8,0.6c0.3,0.3,0.5,0.5,0.5,0.9c0.1,0.4,0.1,0.7-0.2,0.9c-0.2,0.2-0.5,0.4-0.9,0.5
			s-0.7,0.1-1.1,0.1s-0.7,0-0.9-0.1c-2-0.4-4.1-0.6-6.2-0.7c-0.8,0-1.7-0.1-2.5-0.1s-1.7,0-2.5,0.1c-0.9,0.1-1.8,0.3-2.5,0.5
			c-0.2,0.1-0.5,0.2-0.7,0.3c-0.3,0.1-0.5,0.3-0.7,0.4c-0.4,0.3-0.6,0.6-0.8,0.9c-0.3,0.6-0.4,1.3-0.4,2s0.1,1.2,0.3,1.7l0.2,0.4
			c0.1,0,0.1,0,0.1,0h0.1c0.4,0.1,0.7,0.1,1.1,0.1s0.8,0,1.2,0.1c0.9,0,1.8,0.1,2.8,0.1c0.9,0,1.9,0.1,2.8,0.1c0.5,0,1,0.1,1.5,0.1
			c0.5,0.1,0.9,0.2,1.3,0.4c0.4,0.2,0.7,0.4,1.1,0.6s0.7,0.5,0.9,0.8c0.2,0.2,0.2,0.5,0.3,0.8c0,0.3-0.1,0.5-0.3,0.7
			c-0.4,0.3-0.7,0.5-1.1,0.5c-1.9,0.7-3.7,1.6-5.3,2.7c-0.9,0.6-1.7,1.3-2.4,2.1c-0.8,0.8-1.4,1.6-2,2.5c-0.5,0.9-0.8,1.8-1.1,2.7
			c-0.2,0.9-0.4,1.9-0.4,2.8c0,1.8,0.4,3.6,1.2,5.3c0.7,1.3,1.4,2.5,2.3,3.5c0.6,0.6,1.2,1.1,1.8,1.7c0.2,0.1,0.4,0.2,0.5,0.3
			c0.2,0.1,0.3,0.2,0.5,0.3c0.1,0,0.2,0.1,0.3,0.1c0.1,0,0.2,0.1,0.3,0.1h0.1h0.1c0.1,0,0.1,0,0.1,0s0,0,0.1,0h0.4
			c0.1,0,0.3-0.1,0.7-0.2c0.5-0.2,0.9-0.4,1.4-0.7c0.6-0.4,1.1-0.9,1.5-1.5s0.9-1.1,1.2-1.7c0.6-1.1,1.2-2.4,1.6-3.8
			c0.8-2.4,1.3-4.9,1.5-7.5c0.2-2.5,0.3-5.1,0.3-7.6v-1c-0.1-0.4,0-0.7,0.3-1c0.1,0,0.2-0.1,0.5-0.3c0.4-0.2,0.7-0.3,1.1-0.3
			s0.8,0,1.2,0.1c1,0.1,1.9,0.4,2.7,0.9c0.5,0.3,0.8,0.6,1.1,1c0,0.1,0.1,0.2,0.1,0.3C128,22.5,128.1,22.6,128.1,22.7z"/>
	</g>
	<g>
		<path class="st1" d="M27.9,65.3c0.4,1.3,0.6,2.6,0.7,3.9s0,2.6-0.3,3.9c-0.4,2.2-1.2,4.3-2.4,6.3c-0.4,0.8-0.9,1.5-1.5,2.2
			s-1.2,1.3-2,1.9c-0.3,0.2-0.7,0.5-1,0.7s-0.7,0.4-1.1,0.5c-0.2,0.1-0.4,0.1-0.6,0.2S19.3,85,19,85.1c-0.7,0.1-1.4,0.1-2.1,0
			c-0.5-0.1-1-0.2-1.5-0.3c-0.5-0.1-1-0.3-1.5-0.5c-0.3-0.2-0.7-0.3-1-0.5s-0.7-0.4-1-0.6c-0.7-0.5-1.3-1-1.8-1.6
			c-0.3-0.3-0.5-0.6-0.8-0.9c-0.2-0.3-0.5-0.6-0.7-1c-0.4-0.6-0.8-1.3-1.1-2c-0.3-0.7-0.6-1.4-0.8-2.1c-0.5-1.6-0.9-3.1-1.1-4.7
			S5.3,67.7,5.3,66c0-1.5,0.2-2.9,0.4-4.4C6,60.1,6.4,58.7,7,57.4c0.3-0.6,0.6-1.2,1-1.8c0.4-0.6,0.8-1.1,1.3-1.5
			c0.3-0.3,0.7-0.6,1-0.8s0.7-0.4,1.1-0.7c0.4-0.2,0.8-0.4,1.2-0.6c0.4-0.2,0.9-0.3,1.3-0.3c0.6-0.1,1.2-0.1,1.8-0.1
			c0.6,0,1.2,0.1,1.7,0.3s1,0.4,1.5,0.6c0.1-0.2,0.2-0.4,0.4-0.5c0.2-0.1,0.4-0.2,0.6-0.2c0.3-0.1,0.7-0.1,1,0c0.3,0,0.7,0.1,1,0.2
			c0.3,0.1,0.7,0.2,1,0.3s0.6,0.3,0.8,0.6c0.2,0.2,0.3,0.3,0.4,0.5s0.2,0.4,0.1,0.7l-0.3,1l-1.8,6.6c-0.1,0.2-0.2,0.4-0.4,0.5
			c-0.2,0.1-0.4,0.2-0.6,0.2c-0.3,0.1-0.7,0.1-1,0.1s-0.7-0.1-1-0.2c-0.8-0.2-1.4-0.5-1.9-0.9c-0.2-0.2-0.4-0.5-0.5-0.8v-0.4
			c0-0.2,0-0.3,0-0.5s0-0.3,0-0.5c0-0.7,0-1.3-0.1-2s-0.3-1.3-0.5-2c-0.2,0.1-0.4,0.2-0.6,0.3c-0.2,0.1-0.4,0.2-0.6,0.4
			c-0.4,0.3-0.8,0.7-1.2,1.1c-0.4,0.4-0.7,0.8-1,1.3c-0.1,0.2-0.2,0.4-0.3,0.6c-0.1,0.2-0.2,0.4-0.3,0.6c-0.6,1.3-1,2.7-1.2,4.2
			c-0.2,1.4-0.3,2.9-0.3,4.4c0,0.3,0,0.6,0,0.8c0,0.3,0,0.6,0,0.8c0.1,1.5,0.3,3,0.6,4.4c0.3,1.5,0.8,2.9,1.4,4.2
			c0.2,0.5,0.5,1,0.8,1.5s0.6,0.9,1,1.3c0.1,0.1,0.3,0.2,0.4,0.4c0.1,0.1,0.3,0.2,0.4,0.4c0.1,0.1,0.1,0.1,0.2,0.1
			c0.1,0,0.1,0.1,0.2,0.1h0.1h0.1c0.2-0.1,0.4-0.2,0.6-0.3c0.2-0.1,0.4-0.2,0.5-0.4c0.7-0.5,1.4-1.1,2-1.8c0.6-0.7,1.1-1.4,1.6-2.2
			c0.7-1.3,1.3-2.6,1.7-4.1c0.4-1.4,0.6-2.9,0.7-4.3c-0.1-1.5-0.3-2.9-0.7-4.3c-0.1-0.2,0-0.4,0.1-0.6c0.1-0.2,0.3-0.3,0.5-0.4
			c0.3-0.2,0.6-0.2,0.9-0.3c0.3,0,0.6,0,0.9,0c0.4,0.1,0.7,0.1,1.1,0.3c0.3,0.1,0.7,0.3,1,0.5c0.2,0.2,0.5,0.3,0.7,0.5
			C27.7,64.8,27.9,65,27.9,65.3z"/>
		<path class="st1" d="M46.5,64.9c0.2,1.5,0.3,3,0.3,4.5s0.1,3,0.1,4.5c0,1.2,0,2.4,0,3.6s-0.1,2.4-0.1,3.6c0,0.5-0.1,1-0.1,1.5
			s-0.1,1-0.1,1.5c0,0.2-0.2,0.4-0.4,0.5c-0.3,0.1-0.5,0.2-0.7,0.2c-0.6,0.1-1.3,0.1-2.1-0.1c-0.3-0.1-0.7-0.2-1-0.3
			c-0.3-0.1-0.6-0.3-0.8-0.6c-0.3-0.2-0.5-0.5-0.5-0.8v-0.4c0.1-0.5,0.1-1,0.1-1.5s0-1,0.1-1.5c0-0.1,0-0.2,0-0.3
			c0.1-2.2,0.1-4.5,0.1-6.7v-0.8c0-1.5,0-2.9-0.1-4.3s-0.2-2.9-0.4-4.3c0-0.1,0-0.2,0-0.3s0-0.2,0-0.3h-0.2c-0.8,0-1.6,0-2.3,0
			s-1.5,0-2.3,0c-0.2,0-0.3,0-0.5,0s-0.3,0-0.5,0c-0.2,0.9-0.3,1.7-0.4,2.6c-0.1,0.9-0.2,1.7-0.3,2.6c0,0.2,0,0.4,0,0.5
			c-0.2,2.6-0.3,5.2-0.3,7.8c0,0.8,0,1.6,0,2.5c0,0.8,0,1.7,0.1,2.5c0,0.5,0.1,1,0.1,1.5s0.1,1,0.1,1.5c0.1,0.3,0,0.5-0.2,0.7
			c-0.1,0.1-0.2,0.2-0.4,0.3c-0.3,0.1-0.6,0.2-0.9,0.2c-0.3,0-0.6,0-0.9,0c-0.8-0.1-1.4-0.3-2.1-0.7c-0.3-0.2-0.6-0.4-0.9-0.7
			c0-0.1-0.1-0.1-0.1-0.2s-0.1-0.1-0.1-0.2l0,0l-0.3-3.6c-0.1-1.3-0.2-2.5-0.3-3.8c-0.1-1.2-0.2-2.5-0.3-3.8c-0.1-1.5-0.2-3-0.3-4.4
			c-0.1-1.5-0.2-3-0.3-4.4c-0.1-1.1-0.1-2.2-0.2-3.3S27,58,26.9,56.9v-0.1l0,0c-0.2,0-0.5,0-0.7,0s-0.4-0.1-0.7-0.1
			c-0.8-0.2-1.4-0.5-1.9-0.9c-0.2-0.2-0.3-0.3-0.4-0.5s-0.2-0.4-0.1-0.7c0.1-0.2,0.2-0.4,0.4-0.5c0.2-0.1,0.4-0.2,0.6-0.3
			c0.2,0,0.4-0.1,0.7-0.2c0.2-0.1,0.5-0.1,0.7-0.2c0.2-0.1,0.4-0.2,0.6-0.3s0.3-0.1,0.4-0.2c0.1,0,0.2-0.1,0.4-0.2
			c0.1-0.2,0.1-0.3,0.2-0.5c0.1-0.1,0.2-0.3,0.4-0.4c0.2-0.2,0.5-0.2,0.9-0.3c0.4,0,0.7,0,1,0.1s0.7,0.1,1,0.2
			c0.4,0.1,0.7,0.3,1,0.5c0.2,0.2,0.4,0.3,0.6,0.4c0.2,0.1,0.3,0.3,0.5,0.6c0.5-0.6,1.1-1,1.8-1.3c0.8-0.3,1.5-0.5,2.4-0.5
			c0.8,0,1.6,0.1,2.4,0.3c0.4,0.1,0.8,0.3,1.2,0.4c0.4,0.2,0.8,0.4,1.1,0.6c0.3,0.2,0.6,0.5,0.9,0.7c0.3,0.2,0.5,0.5,0.8,0.8
			c0.4,0.4,0.7,0.9,0.9,1.4c0.3,0.5,0.5,1,0.7,1.5s0.3,1,0.5,1.4c0.1,0.5,0.3,1,0.4,1.4c0.1,0.1,0.2,0.2,0.3,0.3s0.2,0.2,0.3,0.3
			c0.2,0.2,0.2,0.4,0.2,0.6c0,0.2-0.1,0.4-0.2,0.5L46,61.9c0.1,0.5,0.1,0.9,0.2,1.4C46.4,64,46.5,64.5,46.5,64.9z M36.3,59.4
			c0.7,0,1.3,0,2,0c0.6,0,1.3,0,2,0c-0.2-0.6-0.3-1.1-0.5-1.7c-0.2-0.5-0.4-1.1-0.6-1.6c-0.2-0.5-0.4-0.9-0.7-1.2h-0.1
			c-0.5,0.5-1,1-1.4,1.6c-0.2,0.5-0.5,0.9-0.7,1.4s-0.4,1-0.5,1.5c0.1,0,0.2,0,0.3,0C36.2,59.4,36.2,59.4,36.3,59.4z"/>
		<path class="st1" d="M62.5,61.4c-0.7,0.3-1.4,0.6-2.2,0.8c-0.7,0.2-1.5,0.3-2.3,0.3c-0.6,0.1-1.2,0.1-1.8,0.2
			c-0.6,0-1.2,0.1-1.8,0.1l0.7,1.2l3.8,7.2c0.7,1.2,1.3,2.5,2,3.7s1.3,2.5,2,3.7c0.3,0.6,0.6,1.1,0.9,1.7s0.6,1.1,0.9,1.7
			c0.1,0.2,0.2,0.4,0.2,0.6s0,0.4-0.2,0.5c-0.2,0.2-0.4,0.3-0.7,0.4c-0.3,0.1-0.6,0.1-0.8,0.1c-0.8,0-1.5-0.1-2.1-0.4
			c-0.4-0.2-0.8-0.4-1.1-0.7c-0.2-0.2-0.3-0.3-0.4-0.4c-0.3-0.5-0.5-1-0.8-1.4c-0.3-0.5-0.5-1-0.8-1.5c-0.6-1.2-1.3-2.4-1.9-3.6
			c-0.7-1.2-1.3-2.4-1.9-3.6c-0.3-0.6-0.7-1.2-1-1.8c-0.3-0.6-0.6-1.2-1-1.8c0.1,0.8,0.1,1.6,0.1,2.4s0.1,1.6,0.1,2.4
			c0.1,1.2,0.1,2.5,0.2,3.7c0,1.2,0.1,2.5,0.2,3.7c0,0.5,0.1,1,0.1,1.6c0,0.5,0,1.1,0.1,1.6c0.1,0.3,0,0.5-0.2,0.7
			c-0.2,0.1-0.3,0.1-0.4,0.2c-0.3,0.2-0.6,0.2-0.9,0.3c-0.3,0-0.6,0-0.9-0.1c-0.8-0.1-1.5-0.3-2.1-0.7c-0.4-0.2-0.7-0.5-0.9-0.8
			c0-0.1-0.1-0.1-0.1-0.2s-0.1-0.1-0.1-0.2c0-0.3,0-0.7,0-1s0-0.7,0-1.1l-0.3-6.8c-0.1-1.4-0.1-2.8-0.2-4.2
			c-0.1-1.4-0.1-2.8-0.2-4.2c0-0.7-0.1-1.5-0.1-2.2s-0.1-1.5-0.1-2.2h-0.4c-0.7-0.1-1.4-0.3-2.1-0.7c-0.2-0.2-0.5-0.3-0.7-0.5
			s-0.3-0.4-0.4-0.6c-0.1-0.2,0-0.4,0.1-0.6c0.1-0.2,0.3-0.3,0.5-0.4c0.2-0.1,0.5-0.2,0.7-0.2s0.5,0,0.7,0h0.2c0.1,0,0.1,0,0.1,0
			h0.1c0.1,0,0.1-0.1,0.2-0.1c0.1,0,0.1-0.1,0.2-0.1c0.2-0.2,0.3-0.3,0.3-0.4c0-0.1,0.1-0.1,0.1-0.2c0-0.1,0-0.2,0-0.3v-0.4V56l0,0
			c0.1-0.3,0.4-0.6,0.7-0.7c0.3-0.1,0.7-0.2,1-0.2c0.6,0,1.2,0.1,1.8,0.3s1.1,0.5,1.5,0.8c0.2,0.2,0.3,0.3,0.4,0.4c0,0,0,0,0.1,0.1
			s0.1,0.2,0.1,0.3c0.1,0.2,0.1,0.5,0.1,0.8s0,0.5,0,0.8l0,0c0,0.2,0,0.4,0,0.6c0,0.2,0,0.4,0,0.6c1,0,2,0,3-0.1
			c0.4-0.1,0.9-0.1,1.3-0.2c0.4-0.1,0.9-0.2,1.3-0.3c0.2-0.1,0.5-0.1,0.7-0.3c0.2-0.1,0.4-0.2,0.6-0.3c0.3-0.2,0.5-0.5,0.7-0.7
			c0.2-0.3,0.2-0.6,0.3-0.9c0-0.1,0-0.2,0-0.3s0-0.2-0.1-0.3l-0.1-0.2c0,0-0.1,0-0.1-0.1L59.3,56c0,0-0.1,0-0.1-0.1
			c-0.1,0-0.3-0.1-0.5-0.2c-0.2-0.1-0.5-0.1-0.8-0.2c-0.3-0.1-0.5-0.1-0.8-0.2c-0.8-0.2-1.6-0.3-2.4-0.3c-0.8-0.1-1.6-0.1-2.4-0.2
			c-0.2,0-0.4,0-0.7,0c-0.8,0-1.6-0.1-2.3-0.1c-0.8,0-1.6,0-2.3,0.1c-0.7,0-1.4-0.2-2.2-0.5c-0.3-0.1-0.5-0.3-0.8-0.4
			s-0.5-0.4-0.7-0.6c-0.1-0.2-0.2-0.4-0.2-0.6c0-0.2,0.1-0.4,0.2-0.5c0.2-0.2,0.4-0.3,0.7-0.4c0.3-0.1,0.6-0.1,0.8-0.1
			c1.5-0.1,3.1-0.1,4.6,0c0.8,0.1,1.6,0.1,2.5,0.2c0.8,0,1.6,0.1,2.5,0.2c0.8,0.1,1.6,0.2,2.4,0.3c0.8,0.1,1.6,0.3,2.4,0.6
			c0.9,0.2,1.7,0.5,2.5,0.9c0.8,0.3,1.6,0.8,2.2,1.4c0.5,0.4,1,1,1.3,1.7c0.1,0.3,0.2,0.6,0.2,0.9c0,0.3,0,0.6-0.1,0.9
			c-0.2,0.7-0.5,1.3-1,1.7C63.7,60.8,63.1,61.2,62.5,61.4z"/>
		<path class="st1" d="M89.1,63.8c0,1.2-0.1,2.5-0.3,3.7c-0.2,1.4-0.4,2.8-0.7,4.1c-0.3,1.4-0.8,2.7-1.4,3.9c-0.3,0.7-0.7,1.4-1,2
			c-0.4,0.6-0.8,1.3-1.3,1.9c-1,1.2-2.1,2.2-3.5,3.1c-1.6,1.1-3.3,1.8-5.1,2.2c-1.9,0.4-3.7,0.6-5.6,0.5c-0.4,0-0.8-0.1-1.1-0.1
			c-0.3-0.1-0.7-0.2-1-0.3c-0.3-0.1-0.5-0.3-0.8-0.4c-0.3-0.2-0.5-0.4-0.7-0.6c-0.1-0.2-0.2-0.4-0.2-0.6s0.1-0.4,0.2-0.5
			c0.2-0.2,0.4-0.3,0.7-0.4c0.3-0.1,0.6-0.1,0.8-0.1h0.2c0-0.2,0-0.4,0-0.5s0-0.4,0-0.5c0-1.1-0.1-2.2-0.1-3.3
			c0-1.1-0.1-2.2-0.1-3.2L67.8,66c0-0.5,0-1.1,0-1.6s0-1.1,0-1.6c-1-0.1-1.9-0.5-2.7-1.1c-0.2-0.2-0.3-0.3-0.4-0.5s-0.2-0.4-0.1-0.7
			c0.1-0.2,0.2-0.4,0.4-0.5c0.2-0.1,0.4-0.2,0.7-0.3c0.1,0,0.1,0,0.1,0h0.1c0.4-0.2,0.7-0.3,1-0.5c0.2-0.1,0.3-0.2,0.4-0.4
			c0.1-0.1,0.2-0.3,0.3-0.4c0,0,0.1-0.1,0.1-0.2c-0.1-0.5-0.1-1,0-1.5c0-0.1,0-0.1,0-0.2c0-0.1,0-0.1,0-0.2c0.1-0.2,0.1-0.3,0.2-0.4
			c0.4-0.4,0.8-0.5,1.4-0.5s1.1,0.1,1.6,0.2c0.5,0.1,0.9,0.3,1.4,0.6s0.8,0.7,1,1.2v0.1c0.1,0.5,0.1,1,0,1.5c0,0.1-0.1,0.2-0.1,0.3
			s-0.1,0.2-0.1,0.3c0,0.8,0.1,1.6,0.1,2.3c0,0.8,0,1.5,0,2.3c0.1,1.4,0.1,2.8,0.1,4.2c0,1.4,0.1,2.8,0.1,4.2
			c0.1,1.3,0.1,2.5,0.1,3.8c0,1.2,0.1,2.5,0.1,3.7c0,0.2,0,0.4,0,0.6s0,0.4,0,0.6c0.5-0.2,1-0.4,1.4-0.6c0.5-0.2,0.9-0.5,1.3-0.8
			c0.8-0.6,1.5-1.2,2.2-2c0.7-0.7,1.3-1.5,1.8-2.4c0.5-1,1-2,1.4-3.1s0.7-2.2,0.9-3.3c0.3-1.3,0.5-2.6,0.6-3.8
			c0.1-1.3,0.2-2.6,0.2-3.8c0-0.4,0-0.8,0-1.2s0-0.8,0-1.2s-0.1-0.7-0.1-1.1c0-0.4-0.1-0.7-0.3-1c-0.1-0.2-0.2-0.4-0.4-0.5
			c-0.1-0.1-0.2-0.2-0.4-0.3c0.2-0.2,0.1-0.2,0.1-0.2c-0.1,0-0.1-0.1-0.2-0.1l-0.7-0.3c-0.2-0.1-0.5-0.1-0.7-0.2
			c-0.2,0-0.4-0.1-0.7-0.2c-0.5-0.1-1.1-0.2-1.6-0.3c-0.5,0-1.1-0.1-1.6-0.2c-0.3,0-0.7,0-1,0s-0.7,0-1,0c-1.9,0-3.7,0.1-5.4,0.3
			l0,0c-0.1,0-0.2,0-0.3,0l0,0l0,0c-0.6,0.1-1.2,0-1.8-0.2c-0.3-0.1-0.7-0.2-1-0.3s-0.6-0.3-0.8-0.6c-0.2-0.2-0.3-0.3-0.4-0.5
			S64.9,53,65,52.7c0.1-0.2,0.2-0.4,0.4-0.5c0.2-0.1,0.4-0.2,0.6-0.3l1.6-0.1c1.2-0.1,2.3-0.2,3.4-0.2s2.3,0,3.4,0
			c0.8,0,1.6,0.1,2.5,0.1c0.8,0.1,1.6,0.2,2.4,0.3c0.9,0.2,1.8,0.3,2.6,0.6s1.7,0.5,2.5,0.9c0.4,0.2,0.9,0.5,1.3,0.7
			s0.8,0.5,1.2,0.9c0.2,0.2,0.5,0.4,0.7,0.7s0.4,0.5,0.6,0.8s0.3,0.6,0.4,0.9c0.1,0.3,0.2,0.6,0.2,1l0.1,1.4
			C89.1,61.3,89.1,62.6,89.1,63.8z"/>
		<path class="st1" d="M110.6,56.6c0.2,0.2,0.2,0.5,0.2,0.8c-0.1,0.2-0.1,0.4-0.2,0.6c-0.1,0.2-0.1,0.4-0.2,0.6
			c-0.3,1.1-0.7,2.1-1,3.1s-0.6,2.1-1,3.1c-0.5,1.4-0.9,2.8-1.4,4.3c-0.5,1.4-0.9,2.8-1.3,4.3c-0.4,1.3-0.8,2.5-1.2,3.8
			c-0.4,1.3-0.8,2.5-1.2,3.8c-0.2,0.4-0.3,0.8-0.4,1.2c-0.1,0.4-0.2,0.8-0.4,1.2c-0.1,0.2-0.1,0.3-0.2,0.5c0,0.2-0.1,0.3-0.2,0.5
			s-0.2,0.4-0.4,0.5s-0.4,0.2-0.6,0.3c-0.2,0-0.5,0.1-0.7,0.1s-0.5,0-0.6,0c-0.8-0.1-1.5-0.3-2.1-0.7c-0.3-0.2-0.5-0.4-0.8-0.7
			c-0.1-0.2-0.2-0.4-0.4-0.5c-0.1-0.2-0.2-0.4-0.4-0.5c-0.7-1-1.3-2-2-3s-1.3-2-2-3.1c-0.8-1.2-1.6-2.4-2.4-3.6s-1.6-2.4-2.4-3.6
			c-0.4-0.6-0.8-1.2-1.2-1.7c-0.4-0.6-0.8-1.2-1.1-1.8c-0.2-0.2-0.2-0.3-0.2-0.5s0.1-0.4,0.2-0.5c0.2-0.2,0.4-0.3,0.7-0.4
			c0.3,0,0.5-0.1,0.8-0.1s0.5-0.1,0.8-0.1s0.5,0,0.8,0c1.2-0.1,2.3-0.2,3.4-0.3c1.1-0.1,2.3-0.2,3.4-0.2c0.3,0,0.7,0,1.1,0.1
			s0.7,0.2,1.1,0.3c0.3,0.1,0.5,0.3,0.8,0.5s0.5,0.4,0.7,0.6c0.3,0.4,0.3,0.8,0,1.1c-0.2,0.2-0.4,0.3-0.7,0.4
			c-0.3,0.1-0.5,0.1-0.8,0.1s-0.5,0.1-0.8,0.1s-0.5,0-0.8,0.1c-0.5-0.4-1.2-0.3-2-0.3c-0.7,0-1.5,0.1-2.2,0.2
			c0.6,0.9,1.2,1.9,1.8,2.8c0.6,0.9,1.2,1.9,1.8,2.8c0.6,0.9,1.1,1.7,1.7,2.5c0.5,0.8,1.1,1.7,1.6,2.5c0.2-0.4,0.3-0.9,0.4-1.3
			c0.1-0.5,0.3-0.9,0.4-1.4c0.5-1.4,0.9-2.8,1.4-4.3c0.5-1.4,0.9-2.8,1.3-4.3c0.2-0.8,0.5-1.6,0.7-2.3c0.2-0.8,0.5-1.5,0.7-2.3
			c-0.8,0.2-1.6,0.4-2.4,0.6c-0.8,0.1-1.6,0.2-2.4,0.3c-1,0.1-2.1,0.1-3.2-0.1c-0.6-0.1-1.2-0.2-1.8-0.3c-0.6-0.2-1.2-0.3-1.8-0.5
			c-0.5-0.2-1-0.4-1.5-0.6c-0.5-0.3-0.9-0.6-1.3-0.9c-0.3-0.2-0.6-0.5-0.8-0.8c-0.3-0.3-0.5-0.6-0.6-0.9c-0.4-0.7-0.6-1.4-0.6-2.1
			c0-0.4,0-0.7,0.1-1.1c0-0.3,0.1-0.7,0.3-1c0.1-0.2,0.2-0.3,0.3-0.5c0.1-0.2,0.2-0.3,0.3-0.4c0.2-0.2,0.3-0.3,0.5-0.4
			c0.2-0.1,0.3-0.2,0.5-0.3c0.3-0.2,0.6-0.3,1-0.4c0.3-0.1,0.7-0.2,1-0.3c0.8-0.2,1.6-0.2,2.4-0.2s1.6,0.1,2.4,0.2
			c2.1,0.3,4.2,0.9,6.1,1.6c0.2,0.1,0.4,0.2,0.7,0.3c0.3,0.2,0.5,0.3,0.7,0.5s0.3,0.4,0.4,0.7c0.1,0.2,0,0.4-0.2,0.7
			c-0.2,0.2-0.4,0.3-0.7,0.4c-0.3,0.1-0.6,0.1-0.8,0.1c-0.4,0-0.7,0-1.1-0.1s-0.7-0.2-1-0.3C99.5,56,99.4,56,99.4,56
			c-0.4-0.2-0.9-0.3-1.3-0.4c-0.4-0.1-0.9-0.2-1.3-0.3c-0.2-0.1-0.5-0.1-0.8-0.1s-0.5,0-0.8-0.1h-0.9l-0.5,0.1
			c-0.2,0-0.3,0.1-0.5,0.2c-0.2,0.2-0.4,0.3-0.5,0.5c-0.2,0.4-0.3,0.8-0.3,1.4c0,0.2,0.1,0.4,0.1,0.6c0,0.2,0.1,0.4,0.1,0.6l0.3,0.4
			c0.1,0,0.1,0.1,0.1,0.1l0.1,0.1c0.1,0,0.1,0.1,0.2,0.1c0.1,0.1,0.2,0.1,0.3,0.1c0.1,0,0.2,0.1,0.3,0.1c0.1,0,0.2,0,0.3,0.1
			c0.2,0,0.3,0.1,0.5,0.1s0.3,0,0.5,0.1c0.3,0,0.6,0,0.9,0s0.6,0,0.8-0.1c0.5-0.1,1-0.1,1.4-0.2c0.5-0.1,0.9-0.2,1.4-0.4
			c0.7-0.2,1.4-0.5,2.1-0.9c0.7-0.3,1.3-0.7,2-1.1c0.3-0.2,0.7-0.5,1-0.8s0.6-0.5,0.9-0.8c0.2-0.2,0.4-0.3,0.7-0.4
			c0.3-0.1,0.5-0.1,0.8-0.1c0.7,0,1.4,0.2,2.2,0.5c0.3,0.1,0.5,0.3,0.8,0.4C110.2,56.1,110.4,56.3,110.6,56.6z"/>
	</g>
	<path class="st1" d="M195.4,92.5c-1.6,1.5-3.7,2-5.8,2.2c-4.6,0.3-9.2,0.6-13.8,0.6c-9.3,0-18.7-0.1-28-0.1c-10.6,0-21.1,0-31.7,0
		c-5.4,0-10.7,0-16.1-0.1c-3.3-0.1-6.5-0.4-9.7-1.4c-1.6-0.5-3.1-1.2-4.3-2.4c0-0.7,0-1.5,0-2.2c1.7-1.4,3.6-0.9,5.5-0.6
		c8.7,1.6,17.5,1.7,26.3,1.3c3.9-0.2,7.7-0.7,11.6-0.8c4.8-0.2,9.5,0.3,14.2,1.1c4.8,0.8,9.7,0.8,14.5-0.1
		c5.8-1.1,11.5-1.2,17.3,0.3c4.5,1.2,9,0.9,13.5-0.5c1.4-0.4,2.8-0.8,4.1-0.3c0.9,0.3,1.6,0.9,2.5,1.4
		C195.4,91.5,195.4,92,195.4,92.5z"/>
	<path class="st1" d="M188.5,45.8c-3.4-4.8-8.1-7.6-13.8-8.8c-0.6-0.1-0.8-0.3-0.9-0.9c-0.3-2.6-1.4-4.9-3.2-6.9
		c-0.9-0.9-1.5-2-2.1-3.1c-1.5-2.6-1.6-5.2,0.6-7.6c1-1.1,0.9-2.1,0.1-3.3c-0.4-0.6-0.9-1.1-1.4-1.7c0-0.1-0.1-0.2-0.2-0.3
		c-0.8-0.8-2.4-1-3-0.4c0,0,0,0-0.6,0.7l0,0c-2.2,3-2.9,6.1-1.5,9.4c0.8,1.9,2.2,3.5,3.4,5.2c1.2,1.6,2.7,3.1,3.9,4.7
		c0.7,1.1,1,2.4,1.4,3.7c0.1,0.2-0.3,0.6-0.5,0.8c-0.9,0.6-1.9,1-2.8,1.7c-1.7,1.2-2.6,1-3.2-1.1c-0.1-0.4-0.2-0.8-0.3-1.2
		c-0.7-2.2-1.8-4.1-3.6-5.7c-1.2-1.1-2.3-2.3-3.2-3.5c-1.7-2.2-2-4.6-0.3-7.1c0.4-0.6,0.5-1.5,0.4-2.2c-0.2-1.5-2.1-2.9-3.7-3.1
		c-1.4-0.1-2.5,0.7-3.1,2.5c-1.1,3.1-0.8,6.1,1.2,8.8c1.1,1.5,2.6,2.7,3.9,4c1.4,1.4,3,2.7,4.4,4.1c1.8,2,2.2,4.3,1.4,6.8
		c-0.5,1.5-0.8,3-0.5,4.6c0.1,0.8,0.1,1.5,0.2,2.3c0.5,2.8,1,5.6,1.7,8.3c0.4,1.5,1.2,2.8,1.7,4.3c0.4,1.1-0.1,1.7-1.3,1.5
		s-2.1-0.8-2.6-2c-0.6-1.7-1.1-3.4-1.8-5.1c-0.4-1-1-2.1-1.7-2.9c-3.1-3.1-6.9-4.8-11.2-5.4c-4.3-0.7-8.6-0.2-12.8,0.6
		c-5.1,1-8.8,3.8-10.5,8.9c-0.5,1.4-0.7,2.9-1,4.3c-1,5.3,0.6,9.7,5,12.9c4,2.8,8.4,3.3,13.1,2.3c2.6-0.6,4.8-1.8,6.1-4.3
		c2.4-4.7-1.1-10.9-6.4-11.4c-2.4-0.3-4.6,1.3-5.2,3.5c-0.1,0.4-0.1,0.9,0.1,1.1c0.2,0.2,0.7,0.1,1.1,0.1c0.6-0.1,1.1-0.4,1.7-0.5
		c1.4-0.3,2.5,0.1,3.2,1.3c1.6,2.6-0.3,6-3.4,6.2c-2.4,0.2-4.1-1.2-5.6-2.6c-2.6-2.4-2.7-5.7-0.3-8.3c2.7-3,6.1-4,9.9-3.3
		c3.7,0.7,6.6,2.7,7.6,6.5c1.3,4.5-0.2,8.4-3.3,11.8c-0.2,0.3-0.6,0.4-0.9,0.6c-3.4,1.2-6.8,2-10.4,2c-6.5-0.1-12.9,0.3-19.3,1.2
		c-2.9,0.4-5.5,1.6-7.8,3.5c-0.4,0.3-0.8,1-0.7,1.4c0.1,0.4,0.9,0.5,1.4,0.8c0.1,0.1,0.3,0,0.4,0c2.3-0.1,4.7-0.1,7-0.3
		c6.7-0.4,13.4-0.9,20.2-1.1c7.3-0.2,14.7,0,22,0.2c1.9,0,3.8,0.3,5.7,0.5c2.9,0.3,5.8,0.8,8.7,1s5.2-1,6.7-3.5c0.6-1,0.7-2,0.1-3
		c-0.8-1.3-1.5-2.6-2.3-3.9c-2.1-3.3-4.2-6.6-6.2-10c-0.8-1.3-1-2.7-0.5-4.2c0.4-1.3,1.2-1.8,2.6-1.5c0.5,0.1,1,0.3,1.6,0.4
		c2.3,0.2,4.7,0.7,7,0.6c3.9-0.3,6.3-3,8.1-6.2C190.5,51.4,190.4,48.5,188.5,45.8z M181.7,45.3c-1.2,1-3.9,1-5.2,0
		c-0.5-0.4-0.7-0.9-0.6-1.3c0.1-0.3,0.3-0.6,0.7-0.9c0.3-0.2,0.7-0.6,1.4-0.8c0.5-0.1,1-0.1,1.3,0c0.5,0.1,0.9,0.2,1.1,0.3
		c0.6,0.2,0.9,0.3,1.2,0.5C182.6,43.7,182.5,44.7,181.7,45.3z"/>
</g>
</svg>
