<?xml version="1.0" encoding="utf-8"?>
<!-- Generator: Adobe Illustrator 26.0.1, SVG Export Plug-In . SVG Version: 6.00 Build 0)  -->
<svg version="1.1" id="Слой_1" xmlns="http://www.w3.org/2000/svg" xmlns:xlink="http://www.w3.org/1999/xlink" x="0px" y="0px"
	 viewBox="0 0 112.5 112.5" style="enable-background:new 0 0 112.5 112.5;" xml:space="preserve">
<style type="text/css">
	.st0{fill:#2CADE3;}
</style>
<g>
	<path class="st0" d="M57.9,108.5c-13.2-0.6-25.9-4.1-36.4-13.2C11.7,87,7.3,76.2,9.4,63.5c0.9-5.3,0.6-9.4-3.5-13.8
		C3.2,47.1,2,42.7,1.2,39.1c-1.8-10.9,6.5-19.4,17.6-18.8c2.9,0.3,6.5-0.6,9.4-1.8c15.3-6.5,31.4-8.2,47.3-5.3
		c7.1,1.2,13.8,4.7,21.4,5.3c10,0.9,15.6,13.2,10.6,23.5c-3.5,7.1-3.5,13.2-1.5,20.3c4.7,14.4-1.5,24.7-12.6,33.2
		C82.8,103.5,71.4,108.2,57.9,108.5z"/>
</g>
</svg>
