<?xml version="1.0" encoding="utf-8"?>
<!-- Generator: Adobe Illustrator 26.0.1, SVG Export Plug-In . SVG Version: 6.00 Build 0)  -->
<svg version="1.1" id="Слой_1" xmlns="http://www.w3.org/2000/svg" xmlns:xlink="http://www.w3.org/1999/xlink" x="0px" y="0px"
	 viewBox="0 0 40 40" style="enable-background:new 0 0 40 40;" xml:space="preserve">
<style type="text/css">
	.st0{fill:#FFFFFF;}
</style>
<g>
	<path class="st0" d="M20.4,4.8c5.3,0,10.6,0,15.9,0c1.5,0,2.6,1.1,2.6,2.5c0,1.3-1.1,2.3-2.3,2.4c-0.1,0-0.2,0-0.3,0
		c-10.6,0-21.2,0-31.7,0c-1.3,0-2.3-0.7-2.6-1.9c-0.4-1.5,0.8-3,2.3-3c1.1,0,2.1,0,3.2,0C11.8,4.8,16.1,4.8,20.4,4.8z"/>
	<path class="st0" d="M20.3,22C15,22,9.7,22,4.4,22c-1.5,0-2.6-1.1-2.5-2.5c0-1.3,1-2.3,2.3-2.4c0.1,0,0.2,0,0.3,0
		c10.6,0,21.1,0,31.7,0c1.3,0,2.3,0.7,2.6,2c0.3,1.5-0.8,2.9-2.3,3c-0.3,0-0.5,0-0.8,0C30.6,22,25.4,22,20.3,22z"/>
	<path class="st0" d="M20.4,29.4c5.3,0,10.6,0,16,0c1.5,0,2.6,1.1,2.5,2.5c0,1.3-1,2.3-2.3,2.4c-0.1,0-0.2,0-0.2,0
		c-10.6,0-21.3,0-31.9,0c-1.3,0-2.2-0.8-2.5-2c-0.3-1.5,0.8-2.9,2.3-3c0.7,0,1.5,0,2.2,0C11.1,29.4,15.7,29.4,20.4,29.4z"/>
</g>
</svg>
