<?xml version="1.0" encoding="utf-8"?>
<!-- Generator: Adobe Illustrator 26.0.1, SVG Export Plug-In . SVG Version: 6.00 Build 0)  -->
<svg version="1.1" id="Слой_1" xmlns="http://www.w3.org/2000/svg" xmlns:xlink="http://www.w3.org/1999/xlink" x="0px" y="0px"
	 viewBox="0 0 396.5 185" style="enable-background:new 0 0 396.5 185;" xml:space="preserve">
<style type="text/css">
	.st0{fill:#FFFFFF;}
	.st1{display:none;}
	.st2{display:inline;}
	.st3{fill:#110E0E;}
	.st4{display:inline;fill:#110E0E;}
</style>
<g>
	<g>
		<g>
			<g>
				<path class="st0" d="M39.7,24.6h31.8l-8.9,42.7l22,14.6l-8.7,41.4L26.2,88.7L39.7,24.6z M102.4,22.8h31.9l-30.7,144.6
					l-25.9-28.6L102.4,22.8z"/>
				<path class="st0" d="M142.9,24.6h31.8l-8.9,42.7l22,14.6l-8.7,41.4l-49.6-34.6L142.9,24.6z M205.5,22.8h31.9l-30.7,144.6
					l-25.9-28.6L205.5,22.8z"/>
			</g>
		</g>
		<g>
			<g>
				<g>
					<g>
						<g>
							<g>
								<g>
									<g>
										
											<ellipse transform="matrix(0.3798 -0.9251 0.9251 0.3798 47.3371 326.2701)" class="st0" cx="267" cy="127.8" rx="4.9" ry="10.9"/>
									</g>
									<g>
										<path class="st0" d="M378.7,158.5c-1,3.1-2.8,6-5.2,8.3c-3.6,3.5-8.4,5.5-13.4,5.6l-68.7,1.5c-8.7,0.2-16.8-3.6-22.2-10.3
											l-34.8-42.8c-4.5-5.6-6.3-12.8-4.8-19.8l15.2-72.2c1.1-5.1,5.1-8.9,10.2-9.8l75.4-13.1c4.2-0.7,8.4-0.1,12.2,1.8
											c3.8,1.9,6.8,4.9,8.7,8.7l29.2,57.5c2.4,4.6,3.4,9.8,3.1,15l-3.9,64.8C379.5,155.3,379.2,157,378.7,158.5z M231,101.4
											l1.5,0.3c-1.3,6.1,0.2,12.4,4.2,17.3l34.8,42.8c4.9,6,12.1,9.3,19.8,9.2l68.7-1.5c8.8-0.2,16.1-7.2,16.6-16l3.9-64.8
											c0.3-4.7-0.7-9.3-2.8-13.5l-29.2-57.5c-3.3-6.6-10.5-10.1-17.7-8.9L255.4,22c-3.9,0.7-7,3.6-7.8,7.5l-15.2,72.2L231,101.4
											z"/>
									</g>
									<g>
										<path class="st0" d="M365.5,168.3c-0.1,0.4-0.3,0.7-0.5,1c-1.1,1.9-3.3,2.6-5,2.7l-67.3,1.5c-8,0.1-16.3-1-22.7-9.4
											l-33.7-43.9c-1.4-1.9-1.7-4.3-0.8-6.4c1-2.2,2.9-3.6,5.3-3.7l78.3-6.3c5.7-0.5,11.1,2.3,14.1,7.3l31.6,52.5l0,0
											C365.9,165.6,365.9,167.1,365.5,168.3z M237.3,115c-0.4,1.3-0.2,2.8,0.7,3.9l33.7,43.9c5.5,7.2,12.4,8.7,21,8.6l67.2-1.5
											c1.1,0,2.6-0.5,3.3-1.7c0.6-1,0.5-2.3-0.2-3.8L331.6,112c-2.6-4.3-7.3-6.7-12.2-6.3l-78.3,6.3c-1.6,0.1-3,1.1-3.6,2.6
											C237.4,114.7,237.4,114.8,237.3,115z"/>
									</g>
									<g>
										<path class="st0" d="M378.5,157.6c-0.6,1.9-2.1,3.3-4.1,3.7c-2.5,0.6-4.9-0.4-6.2-2.7L338,107.1
											c-2.3-3.9-3.2-8.4-2.6-12.9l9.5-76.4c0.2-1.2,1.3-2.3,2.7-2.5c1.4-0.3,2.6,0.3,3.2,1.3c7.4,14.2,28,55.2,29.9,58.9
											c2,4,2.3,9.3,2.4,9.5v0.1l-4.3,70.9C378.7,156.7,378.6,157.2,378.5,157.6z M346.9,18.1l-9.5,76.4c-0.5,4,0.3,8.1,2.4,11.6
											l30.1,51.6c1,1.7,2.7,2,4,1.7s2.7-1.3,2.8-3.4l4.3-70.9c0-0.6-0.5-5.3-2.1-8.7c-1.8-3.7-22.4-44.7-29.8-58.9
											c-0.1-0.3-0.6-0.3-1-0.3C347.4,17.4,346.9,17.8,346.9,18.1L346.9,18.1z"/>
									</g>
									<g>
										<g>
											<path class="st0" d="M328.7,92.2c-1.1,3.4-4.2,5.9-7.8,6.2l-82.6,6c-2.1,0.2-4.2-0.7-5.6-2.3c-1.4-1.6-2-3.8-1.5-5.9
												L246,28.6c1.1-4.8,4.9-8.5,9.8-9.3L332,6.7c2-0.3,4,0.3,5.5,1.7s2.2,3.4,1.9,5.4L329,90.7
												C329,91.2,328.9,91.7,328.7,92.2z M248.2,28.1c-0.1,0.3-0.2,0.6-0.2,0.9l-14.7,67.6c-0.3,1.5,0.1,3,1.1,4.1
												s2.4,1.7,3.9,1.6l82.6-6c3.2-0.2,5.9-2.7,6.3-5.9l10.4-76.8c0.2-1.4-0.3-2.8-1.3-3.7c-1-1-2.4-1.4-3.8-1.2l-76.3,12.6
												C252.3,21.9,249.3,24.5,248.2,28.1z"/>
										</g>
										<g>
											<g>
												
													<ellipse transform="matrix(0.5746 -0.8184 0.8184 0.5746 81.005 233.2618)" class="st0" cx="264.9" cy="38.7" rx="10.2" ry="6.9"/>
											</g>
											<g>
												<path class="st0" d="M274.2,30.1c0.6,0.5,1.2,1.1,1.6,1.8s0.7,1.5,0.9,2.3c0.2,0.8,0.3,1.6,0.3,2.5c0,0.8,0,1.7-0.2,2.5
													c-0.1,0.4-0.1,0.8-0.2,1.2c0,0.2-0.1,0.4-0.2,0.6c-0.1,0.2-0.1,0.4-0.2,0.6l-0.2,0.6c-0.1,0.2-0.2,0.4-0.2,0.6
													c-0.1,0.2-0.2,0.4-0.3,0.6l-0.3,0.6c-0.1,0.2-0.2,0.4-0.3,0.6l-0.3,0.5c-0.2,0.4-0.4,0.7-0.7,1.1
													c-0.5,0.7-1,1.3-1.6,1.9c-0.6,0.6-1.2,1.2-1.9,1.7c-0.7,0.5-1.4,1-2.2,1.4c-0.8,0.4-1.6,0.8-2.4,1
													c-0.2,0.1-0.4,0.1-0.6,0.2c-0.2,0.1-0.4,0.1-0.7,0.1c-0.4,0.1-0.9,0.1-1.3,0.2c-0.2,0-0.5,0-0.7,0s-0.5,0-0.7,0
													c-0.5,0-0.9-0.1-1.4-0.2c-0.9-0.2-1.8-0.6-2.5-1.1s-1.4-1.2-1.8-1.9c-0.5-0.7-0.7-1.5-0.8-2.3c0.3,0.7,0.8,1.3,1.3,1.8
													s1.2,0.9,1.8,1.2c1.4,0.6,2.9,0.7,4.3,0.4s2.8-0.8,4.1-1.6c1.3-0.8,2.4-1.7,3.4-2.8c0.5-0.5,1-1.1,1.4-1.7
													c0.2-0.3,0.4-0.6,0.6-0.9l0.3-0.5c0.1-0.2,0.2-0.3,0.3-0.5c0.7-1.3,1.3-2.6,1.7-4c0.1-0.3,0.2-0.7,0.3-1.1
													c0.1-0.4,0.1-0.7,0.2-1.1c0.1-0.7,0.1-1.5,0.1-2.2s-0.1-1.5-0.3-2.2C274.9,31.4,274.6,30.7,274.2,30.1z"/>
											</g>
										</g>
										<g>
											<g>
												
													<ellipse transform="matrix(0.5746 -0.8184 0.8184 0.5746 107.8657 269.889)" class="st0" cx="313.6" cy="31.2" rx="10.2" ry="6.9"/>
											</g>
											<g>
												<path class="st0" d="M307.2,23.5c1.5-2.4,3.8-4.4,6.7-5.5c1.5-0.5,3.1-0.8,4.8-0.6c1.7,0.2,3.4,0.9,4.7,2.1
													c0.7,0.6,1.3,1.2,1.8,2c0.5,0.7,0.9,1.5,1.2,2.3c0.6,1.6,0.8,3.3,0.8,5c0,0.8-0.1,1.6-0.3,2.4c-0.2,0.8-0.4,1.6-0.6,2.3
													c-0.5,1.5-1.2,3-2.1,4.3s-1.9,2.5-3.1,3.6s-2.5,2-4,2.7s-3.1,1.2-4.8,1.4c-0.8,0.1-1.7,0.1-2.6,0s-1.7-0.3-2.5-0.6
													c-1.6-0.7-3.1-1.8-4.1-3.2c-0.1-0.2-0.2-0.4-0.4-0.5l-0.3-0.6l-0.1-0.3l-0.1-0.3c-0.1-0.2-0.2-0.4-0.2-0.6
													c-0.1-0.2-0.1-0.4-0.2-0.6c-0.1-0.2-0.1-0.4-0.2-0.6c-0.1-0.4-0.2-0.8-0.2-1.2v-0.6c0-0.2,0-0.4,0-0.6
													c0-0.4,0-0.8,0.1-1.1c0.1-0.8,0.2-1.5,0.4-2.2c0.1-0.4,0.2-0.7,0.3-1c0.1-0.3,0.3-0.7,0.4-1l0.5-0.9
													c0.2-0.3,0.4-0.6,0.6-0.9c-0.5,1.3-0.9,2.6-1.1,4c-0.2,1.4-0.1,2.8,0.1,4.1c0.1,0.3,0.2,0.7,0.3,1
													c0,0.2,0.1,0.3,0.2,0.5s0.1,0.3,0.2,0.5l0.2,0.5l0.1,0.2l0.1,0.2l0.3,0.4c0.1,0.1,0.2,0.3,0.3,0.4
													c0.9,1.1,2,1.9,3.4,2.3c1.3,0.4,2.7,0.5,4.1,0.3s2.7-0.7,3.9-1.3c2.4-1.3,4.5-3.3,6-5.6s2.5-5,2.7-7.7
													c0.1-1.4,0-2.8-0.5-4.1c-0.4-1.3-1.1-2.5-2.1-3.5s-2.3-1.6-3.6-1.9c-1.3-0.3-2.8-0.2-4.1,0.1
													C311.5,20,309.1,21.6,307.2,23.5z"/>
											</g>
										</g>
										<g>
											<g>
												
													<ellipse transform="matrix(0.5746 -0.8184 0.8184 0.5746 66.9394 283.3655)" class="st0" cx="306.1" cy="77.3" rx="10.2" ry="6.9"/>
											</g>
											<g>
												<path class="st0" d="M315.4,68.7c0.6,0.5,1.2,1.1,1.6,1.8c0.4,0.7,0.7,1.5,0.9,2.3c0.2,0.8,0.3,1.6,0.3,2.5
													c0,0.8,0,1.7-0.2,2.5c-0.1,0.4-0.1,0.8-0.2,1.2c0,0.2-0.1,0.4-0.2,0.6s-0.1,0.4-0.2,0.6l-0.2,0.6
													c-0.1,0.2-0.2,0.4-0.2,0.6c-0.1,0.2-0.2,0.4-0.3,0.6l-0.3,0.6c-0.1,0.2-0.2,0.4-0.3,0.6l-0.3,0.5
													c-0.2,0.4-0.4,0.7-0.7,1.1c-0.5,0.7-1,1.3-1.6,1.9s-1.2,1.2-1.9,1.7c-0.7,0.5-1.4,1-2.2,1.4c-0.8,0.4-1.6,0.8-2.4,1
													c-0.2,0.1-0.4,0.1-0.6,0.2s-0.4,0.1-0.7,0.1c-0.4,0.1-0.9,0.1-1.3,0.2c-0.2,0-0.5,0-0.7,0s-0.5,0-0.7,0
													c-0.5,0-0.9-0.1-1.4-0.2c-0.9-0.2-1.8-0.6-2.5-1.1s-1.4-1.2-1.8-1.9c-0.5-0.7-0.7-1.5-0.8-2.3c0.3,0.7,0.8,1.3,1.3,1.8
													s1.2,0.9,1.8,1.2c1.4,0.6,2.9,0.7,4.3,0.4c1.4-0.3,2.8-0.8,4.1-1.6c1.3-0.8,2.4-1.7,3.4-2.8c0.5-0.5,1-1.1,1.4-1.7
													c0.2-0.3,0.4-0.6,0.6-0.9l0.3-0.5c0.1-0.2,0.2-0.3,0.3-0.5c0.7-1.3,1.3-2.6,1.7-4c0.1-0.3,0.2-0.7,0.3-1.1
													c0.1-0.4,0.1-0.7,0.2-1.1c0.1-0.7,0.1-1.5,0.1-2.2s-0.1-1.5-0.3-2.2C316.1,70,315.8,69.3,315.4,68.7z"/>
											</g>
										</g>
										<g>
											<g>
												
													<ellipse transform="matrix(0.5746 -0.8184 0.8184 0.5746 41.5128 245.8607)" class="st0" cx="257.3" cy="83" rx="10.2" ry="6.9"/>
											</g>
											<g>
												<path class="st0" d="M266.6,74.4c0.6,0.5,1.2,1.1,1.6,1.8c0.4,0.7,0.7,1.5,0.9,2.3c0.2,0.8,0.3,1.6,0.3,2.5
													c0,0.8,0,1.7-0.2,2.5c-0.1,0.4-0.1,0.8-0.2,1.2c0,0.2-0.1,0.4-0.2,0.6s-0.1,0.4-0.2,0.6l-0.2,0.6
													c-0.1,0.2-0.2,0.4-0.2,0.6c-0.1,0.2-0.2,0.4-0.3,0.6l-0.3,0.6c-0.1,0.2-0.2,0.4-0.3,0.6l-0.3,0.5
													c-0.2,0.4-0.4,0.7-0.7,1.1c-0.5,0.7-1,1.3-1.6,1.9s-1.2,1.2-1.9,1.7c-0.7,0.5-1.4,1-2.2,1.4c-0.8,0.4-1.6,0.8-2.4,1
													c-0.2,0.1-0.4,0.1-0.6,0.2s-0.4,0.1-0.7,0.1c-0.4,0.1-0.9,0.1-1.3,0.2c-0.2,0-0.5,0-0.7,0s-0.5,0-0.7,0
													c-0.5,0-0.9-0.1-1.4-0.2c-0.9-0.2-1.8-0.6-2.5-1.1s-1.4-1.2-1.8-1.9c-0.5-0.7-0.7-1.5-0.8-2.3c0.3,0.7,0.8,1.3,1.3,1.8
													s1.2,0.9,1.8,1.2c1.4,0.6,2.9,0.7,4.3,0.4c1.4-0.3,2.8-0.8,4.1-1.6c1.3-0.8,2.4-1.7,3.4-2.8c0.5-0.5,1-1.1,1.4-1.7
													c0.2-0.3,0.4-0.6,0.6-0.9l0.3-0.5c0.1-0.2,0.2-0.3,0.3-0.5c0.7-1.3,1.3-2.6,1.7-4c0.1-0.3,0.2-0.7,0.3-1.1
													c0.1-0.4,0.1-0.7,0.2-1.1c0.1-0.7,0.1-1.5,0.1-2.2s-0.1-1.5-0.3-2.2C267.3,75.7,267,75,266.6,74.4z"/>
											</g>
										</g>
										<g>
											<g>
												
													<ellipse transform="matrix(0.5746 -0.8184 0.8184 0.5746 72.9329 257.833)" class="st0" cx="284.5" cy="58.8" rx="10.2" ry="6.9"/>
											</g>
											<g>
												<path class="st0" d="M288.3,46.2c0.4-0.1,0.9-0.2,1.3-0.2s0.9,0,1.4,0c0.9,0.1,1.8,0.4,2.7,0.9c0.8,0.5,1.6,1.1,2.3,1.9
													c0.2,0.2,0.3,0.4,0.5,0.6c0.1,0.2,0.3,0.4,0.4,0.6c0.1,0.2,0.3,0.4,0.4,0.7c0.1,0.2,0.2,0.5,0.3,0.7
													c0.2,0.5,0.3,0.9,0.5,1.4c0.1,0.2,0.1,0.5,0.2,0.7c0,0.2,0.1,0.5,0.1,0.7c0.1,1,0.2,2,0.1,2.9c-0.1,1-0.2,1.9-0.5,2.8
													c-0.2,0.9-0.6,1.8-1,2.7s-0.9,1.7-1.4,2.5c-0.1,0.2-0.3,0.4-0.4,0.6s-0.3,0.4-0.4,0.6l-0.4,0.5
													c-0.1,0.1-0.1,0.2-0.2,0.3l-0.2,0.3c-0.3,0.3-0.6,0.7-1,1c-0.2,0.2-0.3,0.3-0.5,0.5s-0.4,0.3-0.6,0.4l-0.6,0.4
													c-0.2,0.1-0.4,0.3-0.6,0.4s-0.4,0.3-0.6,0.4l-0.6,0.3c-0.8,0.4-1.7,0.8-2.6,1.1c-0.9,0.2-1.8,0.4-2.8,0.5
													c-0.5,0-0.9,0-1.4,0c-0.2,0-0.5-0.1-0.7-0.1s-0.4-0.1-0.7-0.1l-0.7-0.2c-0.2-0.1-0.4-0.2-0.6-0.2l-0.3-0.1
													c-0.1,0-0.2-0.1-0.3-0.2c-0.2-0.1-0.4-0.2-0.6-0.4c1.6,0.4,3.3,0.4,4.9,0c0.8-0.2,1.6-0.5,2.3-0.8
													c0.4-0.2,0.7-0.4,1.1-0.6c0.3-0.2,0.7-0.4,1-0.6c1.4-0.9,2.6-2,3.6-3.3s1.9-2.7,2.6-4.2s1.1-3.1,1.3-4.7
													c0.2-1.6,0.1-3.3-0.4-4.9c-0.2-0.8-0.6-1.5-1-2.2s-1-1.3-1.6-1.8s-1.3-0.9-2.1-1.2C289.9,46.4,289.1,46.3,288.3,46.2z"
													/>
											</g>
										</g>
										<g>
											<path class="st0" d="M250,98.2l-12.1,0.9c-0.6,0-1-0.3-1.2-0.5s-0.5-0.7-0.3-1.3l3.4-15.6c-0.2,1-2.1,13.4-1.1,15
												C239.7,98.3,249.4,98.3,250,98.2z"/>
										</g>
										<g>
											<path class="st0" d="M275.1,21.4c-0.6,0.1-19.1,4.8-21.1,8.7c-2.1,3.9-8.3,24.2-8.3,24.2l5.4-24.6c0-0.2,0.1-0.4,0.2-0.6
												c0.8-2.4,2.8-4.2,5.4-4.6L275.1,21.4z"/>
										</g>
										<g>
											<polygon class="st0" points="285.9,25.8 276,33.9 276.4,36.9 											"/>
										</g>
										<g>
											<path class="st0" d="M259.9,51.1c0,0-4.7,4-6.4,5.4s0.1,3,1.1,2.7l-8,7.6l-2.8,12.8c0,0,21.2-20.1,23.1-21.8
												s0.2-3.6-0.5-3.6l5.2-5.4l-7.3,2.7L259.9,51.1z"/>
										</g>
										<g>
											<path class="st0" d="M297.5,54.8l11-10.9c0,0-4.9-1.6-5.6-4.9l-8.8,8.8C294.1,47.8,296.9,50.7,297.5,54.8z"/>
										</g>
										<g>
											<path class="st0" d="M328.1,58.4c-1.4,10.5-2.8,21-4.3,31.6c0,0.2-0.1,0.4-0.1,0.6c-0.4,1.4-1.7,2.4-3.2,2.5l-35.1,2.6
												l17.7-3.1l-9.5-0.6l10.4-2c0,0,6.9-0.9,9.5-4.7c2.6-3.8,4.2-10.5,4.2-10.5s0.9,0.9,0.3,4.1s-2.5,8-2.5,8
												s5.4-3.8,4.8-13.7c1.1-2,2.3-4,3.4-6.1C325.2,64.2,326.6,61.3,328.1,58.4z"/>
										</g>
										<g>
											<path class="st0" d="M333.9,12.2c0.2,0.2,0.4,0.5,0.3,1l-4.5,33.6l-0.2-7.3l-12.3,14.2l-0.9-3L300,65.8l20-22.9l0.8,2.3
												c0,0,6-6.3,5.2-15.1c0,0,0.5-7.8-4.5-10.6c-5-2.7-17.7,1.1-18.1,1.2l6.1-3l-17.2,0.9l40.6-6.7
												C333.4,11.8,333.7,12,333.9,12.2z"/>
										</g>
										<g>
											<polygon class="st0" points="265.2,97.1 273.1,94.6 293.1,74.5 276,95 280.9,96 											"/>
										</g>
									</g>
									<g>
										<g>
											<path class="st0" d="M358.6,55c1.1,0.7,2,1.6,2.7,2.6c0.8,1,1.4,2.1,2,3.2c1.1,2.3,1.7,4.8,2,7.3s0.2,5.1-0.4,7.5
												c-0.3,1.2-0.7,2.4-1.3,3.6c-0.3,0.6-0.6,1.1-1.1,1.6c-0.2,0.2-0.4,0.5-0.7,0.7c-0.2,0.2-0.5,0.4-0.8,0.5
												c0.9-0.8,1.4-2,1.8-3.1s0.7-2.3,0.8-3.5c0.3-2.4,0.3-4.8,0.1-7.2c-0.3-2.4-0.8-4.8-1.6-7C361.3,58.9,360.2,56.8,358.6,55
												z"/>
										</g>
									</g>
									<g>
										<path class="st0" d="M364.9,96.4c0.3,0.2,0.7,0.4,1,0.6c0.2,0.1,0.3,0.2,0.5,0.4c0.1,0.1,0.3,0.2,0.4,0.4
											c0.1,0.1,0.3,0.3,0.4,0.4s0.3,0.3,0.4,0.4c0.3,0.3,0.5,0.6,0.8,0.9c0.9,1.3,1.7,2.7,2.3,4.1c1.3,2.9,2,6,2.2,9.1
											c0,0.8,0.1,1.6,0.1,2.4s-0.1,1.6-0.2,2.4c-0.2,1.6-0.5,3.2-1.2,4.7c-0.3,0.8-0.7,1.5-1.2,2.2c-0.3,0.3-0.5,0.7-0.9,1
											c-0.3,0.3-0.7,0.6-1.1,0.8c-0.8,0.4-1.8,0.6-2.6,0.4c-0.4-0.1-0.8-0.3-1.1-0.5c-0.3-0.2-0.6-0.5-0.9-0.8
											c0.6,0.4,1.3,0.7,2.1,0.8c0.2,0,0.4,0,0.6,0s0.4-0.1,0.6-0.1c0.4-0.1,0.7-0.3,1-0.5c0.6-0.4,1.1-1,1.5-1.7
											c0.4-0.6,0.7-1.3,0.9-2.1c0.5-1.4,0.7-2.9,0.9-4.4c0.1-1.5,0.1-3,0-4.5c-0.2-3-0.8-6-1.8-8.8c-0.5-1.4-1.1-2.8-1.8-4.1
											C367,98.6,366.1,97.3,364.9,96.4z"/>
									</g>
									<g>
										<path class="st0" d="M373.7,124.1l-1.6,26.1c0,0.1,0,0.1,0,0.2c-0.1,0.2-0.4,0.2-0.4,0.2c-0.2,0-0.3-0.1-0.4-0.2
											L357.7,127l12.6,17.3L373.7,124.1z"/>
									</g>
									<g>
										<path class="st0" d="M343.1,86.2c0.6,3.8,1.4,9.8,1.7,12.1c0.4,3.4,8.8,21.4,8.9,21.7l-9.6-16.5c-1.7-2.9-2.4-6.3-2-9.6
											L343.1,86.2z"/>
									</g>
									<g>
										<path class="st0" d="M351.8,33.5c2.5,5,5.5,10.8,8.5,16.8l-8.1-10.7l-5.4,21.3l3.4-27C350.3,33,351.4,32.8,351.8,33.5z"/>
									</g>
									<g>
										<path class="st0" d="M364.5,161.4c-2.2-2.7-4.2-5.5-6.1-8.4s-3.7-5.8-5.5-8.7c-1.7-3-3.4-6-5-9c-1.6-3.1-3.1-6.2-4.4-9.4
											c2.2,2.7,4.2,5.5,6.1,8.4c1.9,2.9,3.7,5.8,5.5,8.7c1.7,3,3.4,6,5,9S363.2,158.1,364.5,161.4z"/>
										<path class="st0" d="M366.1,160.5c-2.2-2.7-4.2-5.5-6.1-8.4s-3.7-5.8-5.5-8.7c-1.7-3-3.4-6-5-9c-1.6-3.1-3.1-6.2-4.4-9.4
											c2.2,2.7,4.2,5.5,6.1,8.4c1.9,2.9,3.7,5.8,5.5,8.7c1.7,3,3.4,6,5,9C363.3,154.2,364.8,157.3,366.1,160.5z"/>
										<path class="st0" d="M367.7,159.7c-2.2-2.7-4.2-5.5-6.1-8.4s-3.7-5.8-5.5-8.7c-1.7-3-3.4-6-5-9c-1.6-3.1-3.1-6.2-4.4-9.4
											c2.2,2.7,4.2,5.5,6.1,8.4s3.7,5.8,5.5,8.7c1.7,3,3.4,6,5,9C364.9,153.4,366.4,156.5,367.7,159.7z"/>
									</g>
									<g>
										<path class="st0" d="M278.6,112.2c-11.2,1.7-22.4,3.3-33.6,5c-0.5,0.1-0.8,0.6-0.5,1.1c3.8,6,7.5,12,11.3,18
											c0.2,0.2,0.3,0.5,0.5,0.7c-5-6.4-10.1-12.8-15.1-19.2c-0.5-0.6-0.4-1.2-0.3-1.6c0.1-0.3,0.4-1.1,1.5-1.2
											C254.4,114,266.5,113.1,278.6,112.2z"/>
									</g>
									<g>
										<path class="st0" d="M329,113.7l30.9,51.4c0.3,0.7,0.3,1.1,0.3,1.3c-0.1,0.2-0.5,0.5-1.2,0.5c-13.3,0.3-26.6,0.6-39.9,0.9
											c5.3-0.8,10.5-1.6,15.8-2.5c-3.2-0.5-6.3-1.1-9.5-1.6c5-0.3,9.9-0.6,14.9-0.9c0,0,12.3-0.7,11.4-5.6
											c-0.9-4.9-4.8-10.2-4.8-10.2l-5.9-4.4l0.6-3.9c-6.1-11.1-10.1-17.6-12.9-21.4c-1-1.3-2.5-3.8-5.6-5.2
											c-1.1-0.5-2.4-0.7-4.9-1c-2.9-0.4-4.7-0.4-11.6-0.8c-1.1-0.1-2-0.1-2.5-0.1c5.1-0.4,10.2-0.8,15.3-1.2
											C323.2,108.5,326.9,110.4,329,113.7z"/>
									</g>
									<g>
										<path class="st0" d="M302.5,168.1l-9.6,0.2c-5.4,0.1-9.8-0.5-13.5-2.7c-1.4-0.8-2.6-1.9-5.1-4.7c-2.7-3-6.3-7.4-10.2-13.3
											c4.5,4.7,8.7,8,11.8,10.3c5.6,4,11.1,8.2,19.2,9.5C297.3,167.7,299.8,168,302.5,168.1z"/>
									</g>
									<g>
										<polygon class="st0" points="310.5,110.3 307.6,122.4 308.6,110 										"/>
									</g>
									<g>
										<path class="st0" d="M278.2,132.1c-0.3,0.9-1,1.7-2,2.2c-2.5,1.2-6.7,0.9-10.9-0.8c-6.3-2.5-10.3-6.7-9.3-9.9l0,0
											c0.3-0.9,1-1.7,2-2.2c2.5-1.2,6.7-0.9,10.9,0.8l0,0C275.2,124.6,279.2,128.9,278.2,132.1L278.2,132.1z M257.8,124.2
											L257.8,124.2c-0.6,1.8,2.6,5.3,8.1,7.5c4.3,1.7,7.8,1.6,9.4,0.9c0.5-0.3,0.9-0.6,1-1l0,0c0.6-1.8-2.6-5.3-8.1-7.5l0,0
											c-4.3-1.7-7.8-1.6-9.4-0.9C258.3,123.4,257.9,123.7,257.8,124.2z"/>
									</g>
									<g>
										<path class="st0" d="M259.1,118.3c0.6-0.2,1.2-0.4,1.8-0.5c0.6-0.1,1.2-0.2,1.8-0.3c0.6-0.1,1.3-0.1,1.9,0
											c0.6,0,1.3,0.1,1.9,0.1c2.5,0.3,4.9,1,7.3,2.1c1.2,0.5,2.3,1.2,3.4,1.9c1.1,0.7,2.1,1.6,3,2.6c0.2,0.3,0.5,0.5,0.7,0.8
											l0.3,0.4c0.1,0.1,0.2,0.3,0.3,0.5c0.4,0.6,0.7,1.3,1,2c0.6,1.4,0.8,3.1,0.5,4.7s-1.1,3.2-2.3,4.3c-0.6,0.6-1.2,1-1.9,1.4
											c-0.3,0.2-0.7,0.3-1,0.5c-0.4,0.2-0.7,0.2-1.1,0.4c-1.4,0.4-2.8,0.5-4.2,0.4c-0.7,0-1.3-0.1-2-0.2c-0.3-0.1-0.6-0.1-1-0.2
											c-0.3-0.1-0.6-0.1-0.9-0.2c-0.3-0.1-0.6-0.2-0.9-0.3s-0.6-0.2-0.9-0.3c-0.6-0.2-1.2-0.4-1.8-0.7c-0.3-0.1-0.6-0.3-0.9-0.4
											c-0.3-0.1-0.6-0.3-0.8-0.4c-0.6-0.3-1.1-0.6-1.6-1c-0.5-0.3-1-0.7-1.5-1.1c-0.5-0.4-1-0.8-1.4-1.2
											c-0.5-0.4-0.9-0.9-1.3-1.3c-0.4-0.5-0.8-0.9-1.1-1.5c1.7,1.7,3.7,3,5.9,4.1c1.1,0.5,2.2,1,3.3,1.4
											c1.1,0.4,2.3,0.7,3.5,0.9s2.4,0.3,3.6,0.3s2.4-0.1,3.5-0.5c0.3-0.1,0.6-0.2,0.8-0.3c0.3-0.1,0.5-0.2,0.8-0.4
											c0.5-0.3,1-0.7,1.4-1.1c0.9-0.8,1.4-1.9,1.7-3.1c0.2-1.2,0.1-2.4-0.4-3.5c-0.4-1.1-1.1-2.1-1.9-3s-1.7-1.7-2.6-2.4
											c-1-0.7-2-1.4-3-1.9c-2.1-1.1-4.4-2-6.7-2.6C263.9,118.1,261.5,117.9,259.1,118.3z"/>
									</g>
									<g>
										
											<ellipse transform="matrix(0.3798 -0.9251 0.9251 0.3798 58.9437 366.2113)" class="st0" cx="302.6" cy="139.1" rx="4.9" ry="10.9"/>
									</g>
									<g>
										<path class="st0" d="M313.8,143.4c-0.3,0.9-1,1.7-2,2.2c-2.5,1.2-6.7,0.9-10.9-0.8c-6.3-2.5-10.3-6.7-9.3-9.9l0,0
											c0.3-0.9,1-1.7,2-2.2c2.5-1.2,6.7-0.9,10.9,0.8l0,0C310.8,135.9,314.8,140.2,313.8,143.4L313.8,143.4z M293.4,135.5
											L293.4,135.5c-0.6,1.8,2.6,5.3,8.1,7.5c4.3,1.7,7.8,1.6,9.4,0.9c0.5-0.3,0.9-0.6,1-1l0,0c0.6-1.8-2.6-5.3-8.1-7.5l0,0
											c-4.3-1.7-7.8-1.6-9.4-0.9C293.9,134.7,293.5,135.1,293.4,135.5z"/>
									</g>
									<g>
										<path class="st0" d="M294.7,129.6c0.6-0.2,1.2-0.4,1.8-0.5c0.6-0.1,1.2-0.2,1.8-0.3c0.6-0.1,1.3-0.1,1.9,0
											c0.6,0,1.3,0.1,1.9,0.1c2.5,0.3,4.9,1,7.3,2.1c1.2,0.5,2.3,1.2,3.4,1.9s2.1,1.6,3,2.6c0.2,0.3,0.5,0.5,0.7,0.8l0.3,0.4
											c0.1,0.1,0.2,0.3,0.3,0.5c0.4,0.6,0.7,1.3,1,2c0.6,1.4,0.8,3.1,0.5,4.7c-0.3,1.6-1.1,3.2-2.3,4.3c-0.6,0.6-1.2,1-1.9,1.4
											c-0.3,0.2-0.7,0.3-1,0.5c-0.4,0.2-0.7,0.2-1.1,0.4c-1.4,0.4-2.8,0.5-4.2,0.4c-0.7,0-1.3-0.1-2-0.2c-0.3-0.1-0.6-0.1-1-0.2
											c-0.3-0.1-0.6-0.1-0.9-0.2c-0.3-0.1-0.6-0.2-0.9-0.3s-0.6-0.2-0.9-0.3c-0.6-0.2-1.2-0.4-1.8-0.7c-0.3-0.1-0.6-0.3-0.9-0.4
											c-0.3-0.1-0.6-0.3-0.8-0.4c-0.6-0.3-1.1-0.6-1.6-1c-0.5-0.3-1-0.7-1.5-1.1c-0.5-0.4-1-0.8-1.4-1.2
											c-0.5-0.4-0.9-0.9-1.3-1.3c-0.4-0.5-0.8-0.9-1.1-1.5c1.7,1.7,3.7,3,5.9,4.1c1.1,0.5,2.2,1,3.3,1.4
											c1.1,0.4,2.3,0.7,3.5,0.9s2.4,0.3,3.6,0.3s2.4-0.1,3.5-0.5c0.3-0.1,0.6-0.2,0.8-0.3c0.3-0.1,0.5-0.2,0.8-0.4
											c0.5-0.3,1-0.7,1.4-1.1c0.9-0.8,1.4-1.9,1.7-3.1c0.2-1.2,0.1-2.4-0.4-3.5c-0.4-1.1-1.1-2.1-1.9-3s-1.7-1.7-2.6-2.4
											c-1-0.7-2-1.4-3-1.9c-2.1-1.1-4.4-2-6.7-2.6C299.5,129.5,297.1,129.2,294.7,129.6z"/>
									</g>
									<g>
										
											<ellipse transform="matrix(0.3798 -0.9251 0.9251 0.3798 67.5245 405.3012)" class="st0" cx="336" cy="152.3" rx="4.9" ry="10.9"/>
									</g>
									<g>
										<path class="st0" d="M347.1,156.6c-0.3,0.9-1,1.7-2,2.2c-2.5,1.2-6.7,0.9-10.9-0.8c-6.3-2.5-10.3-6.7-9.3-9.9l0,0
											c0.3-0.9,1-1.7,2-2.2c2.5-1.2,6.7-0.9,10.9,0.8l0,0C344.2,149.1,348.2,153.4,347.1,156.6L347.1,156.6z M326.8,148.6
											L326.8,148.6c-0.6,1.8,2.6,5.3,8.1,7.5c4.3,1.7,7.8,1.6,9.4,0.9c0.5-0.3,0.9-0.6,1-1l0,0c0.6-1.8-2.6-5.3-8.1-7.5l0,0
											c-4.3-1.7-7.8-1.6-9.4-0.9C327.3,147.9,326.9,148.2,326.8,148.6z"/>
									</g>
									<g>
										<path class="st0" d="M328.1,142.8c0.6-0.2,1.2-0.4,1.8-0.5c0.6-0.1,1.2-0.2,1.8-0.3c0.6-0.1,1.3-0.1,1.9,0
											c0.6,0,1.3,0.1,1.9,0.1c2.5,0.3,4.9,1,7.3,2.1c1.2,0.5,2.3,1.2,3.4,1.9s2.1,1.6,3,2.6c0.2,0.3,0.5,0.5,0.7,0.8l0.3,0.4
											c0.1,0.1,0.2,0.3,0.3,0.5c0.4,0.6,0.7,1.3,1,2c0.6,1.4,0.8,3.1,0.5,4.7c-0.3,1.6-1.1,3.2-2.3,4.3c-0.6,0.6-1.2,1-1.9,1.4
											c-0.3,0.2-0.7,0.3-1,0.5c-0.4,0.2-0.7,0.2-1.1,0.4c-1.4,0.4-2.8,0.5-4.2,0.4c-0.7,0-1.3-0.1-2-0.2c-0.3-0.1-0.6-0.1-1-0.2
											c-0.3-0.1-0.6-0.1-0.9-0.2c-0.3-0.1-0.6-0.2-0.9-0.3s-0.6-0.2-0.9-0.3c-0.6-0.2-1.2-0.4-1.8-0.7c-0.3-0.1-0.6-0.3-0.9-0.4
											c-0.3-0.1-0.6-0.3-0.8-0.4c-0.6-0.3-1.1-0.6-1.6-1c-0.5-0.3-1-0.7-1.5-1.1c-0.5-0.4-1-0.8-1.4-1.2
											c-0.5-0.4-0.9-0.9-1.3-1.3c-0.4-0.5-0.8-0.9-1.1-1.5c1.7,1.7,3.7,3,5.9,4.1c1.1,0.5,2.2,1,3.3,1.4
											c1.1,0.4,2.3,0.7,3.5,0.9s2.4,0.3,3.6,0.3s2.4-0.1,3.5-0.5c0.3-0.1,0.6-0.2,0.8-0.3c0.3-0.1,0.5-0.2,0.8-0.4
											c0.5-0.3,1-0.7,1.4-1.1c0.9-0.8,1.4-1.9,1.7-3.1c0.2-1.2,0.1-2.4-0.4-3.5c-0.4-1.1-1.1-2.1-1.9-3s-1.7-1.7-2.6-2.4
											c-1-0.7-2-1.4-3-1.9c-2.1-1.1-4.4-2-6.7-2.6C332.9,142.6,330.4,142.3,328.1,142.8z"/>
									</g>
									<g>
										<polygon class="st0" points="286,166.5 288.9,143.1 289,166.7 										"/>
									</g>
									<g>
										<path class="st0" d="M284,165.5l3.6-31.9c0.2-1.6-1.5-2.7-2.9-2l-2.7,0.6c0,0-0.7,5.2-4,5.8s-2.7,6.4-1.8,6.6
											c1.6,0.2,4.7-3.9,4.7-3.9s-0.4,1.7-2.2,4.4l-1.9,15.8L284,165.5z"/>
									</g>
									<g>
										<path class="st0" d="M277.6,122.2l1.3-7l6.4-0.7l-2.7,18.5C281.8,129.2,280.1,125.6,277.6,122.2z"/>
									</g>
									<g>
										<path class="st0" d="M312.8,110.3L308,131c0,0,5.5,1.8,8.1,6s1.2,4.3,1.2,4.3s3.4,0.4-2.4-9.2c0,0,2.3,1.6,4.1,3.8
											l5.8-25.1L312.8,110.3z"/>
									</g>
									<g>
										<polygon class="st0" points="327.5,114 323,135.2 330.7,129 332.3,120.2 										"/>
									</g>
									<g>
										<polygon class="st0" points="314.7,148.8 310.3,165.6 305.1,165.9 309.2,150.2 										"/>
									</g>
									<g class="st1">
										<g class="st2">
											<path class="st3" d="M331.7,96.2c0.2-5.1,0.7-10.1,1.2-15.2c0.5-5,1.1-10.1,1.7-15.1s1.4-10,2.2-15.1
												c0.8-5,1.7-10,2.7-15c-0.2,5.1-0.7,10.1-1.2,15.2c-0.5,5-1.1,10.1-1.7,15.1c-0.7,5-1.4,10-2.2,15.1
												C333.6,86.2,332.7,91.2,331.7,96.2z"/>
										</g>
										<g class="st2">
											<path class="st3" d="M339.8,31.8c-0.1-1.5-0.1-3,0-4.5s0.2-3,0.4-4.4c0.2-1.5,0.4-2.9,0.7-4.4c0.3-1.5,0.6-2.9,1.1-4.4
												c0.1,1.5,0.1,3,0,4.5s-0.2,3-0.4,4.4c-0.2,1.5-0.4,2.9-0.7,4.4C340.6,28.9,340.3,30.4,339.8,31.8z"/>
										</g>
										<g class="st2">
											<path class="st3" d="M241.5,106.9c6.1-0.9,12.3-1.5,18.5-2.1c6.2-0.6,12.3-1.1,18.5-1.6c6.2-0.4,12.3-0.8,18.5-1.1
												c6.2-0.3,12.4-0.5,18.6-0.6c-6.1,0.9-12.3,1.5-18.5,2.1s-12.3,1.1-18.5,1.6s-12.3,0.8-18.5,1.1
												C253.9,106.7,247.7,106.9,241.5,106.9z"/>
										</g>
									</g>
									<g class="st1">
										<polygon class="st4" points="267.3,150.2 268,138.2 270.4,139 269.4,153.3 										"/>
									</g>
								</g>
								<path class="st0" d="M359.4,103.1c-0.4,2.4-0.3,5.5,0.2,8.7c1,6,3.6,12.2,6.4,11.7c1-0.2,1.8-1.1,2.2-2.6
									c0.8-2.6,0.8-6.7,0.2-10.5c-0.5-3.2-1.4-6.2-2.5-8.3c-1.2-2.4-2.6-3.6-3.9-3.3C360.7,98.9,359.8,100.4,359.4,103.1z
									 M362.3,99.9c-0.1,0-0.1,0-0.2,0.1C362.1,100,362.2,100,362.3,99.9L362.3,99.9z"/>
								<path class="st0" d="M352.5,56.3c-1.5,2-1.9,6.7-0.9,12.1c1,6.1,3.8,12.4,6.8,12.1c0.6-0.1,1.2-0.4,1.6-1
									c0.3-0.4,0.6-1,0.8-1.7c0.8-2.4,0.8-6.2,0.1-10.4c-1-6.1-3.8-12.4-6.8-12.1C353.5,55.4,352.9,55.7,352.5,56.3z"/>
							</g>
						</g>
					</g>
				</g>
			</g>
		</g>
	</g>
</g>
</svg>
