<?xml version="1.0" encoding="utf-8"?>
<!-- Generator: Adobe Illustrator 26.0.1, SVG Export Plug-In . SVG Version: 6.00 Build 0)  -->
<svg version="1.1" id="Слой_1" xmlns="http://www.w3.org/2000/svg" xmlns:xlink="http://www.w3.org/1999/xlink" x="0px" y="0px"
	 viewBox="0 0 40 40" style="enable-background:new 0 0 40 40;" xml:space="preserve">
<style type="text/css">
	.st0{fill:#2CADE3;}
	.st1{fill:#FFFFFF;}
</style>
<g>
	<path class="st0" d="M20.3,36c-4.5-0.2-8.8-1.4-12.4-4.5C4.6,28.7,3.1,25,3.8,20.7C4.1,18.9,4,17.5,2.6,16
		c-0.9-0.9-1.3-2.4-1.6-3.6C0.4,8.7,3.2,5.8,7,6c1,0.1,2.2-0.2,3.2-0.6c5.2-2.2,10.7-2.8,16.1-1.8C28.7,4,31,5.2,33.6,5.4
		c3.4,0.3,5.3,4.5,3.6,8c-1.2,2.4-1.2,4.5-0.5,6.9c1.6,4.9-0.5,8.4-4.3,11.3C28.8,34.3,24.9,35.9,20.3,36z M19.2,13.6
		c-0.4-0.3-0.8-0.6-1.1-0.9c-3.9-3.2-8.5-1.6-9.6,3.3c-1.4,6.4,4,12.8,10.5,12.4c6.1-0.3,10.7-4.7,11.3-10.8
		c0.3-2.8-0.6-4.6-2.6-5.7c-2.8-1.5-5-1.3-7.2,0.6C20.1,12.9,19.7,13.2,19.2,13.6z"/>
	<path class="st1" d="M19.2,13.6c0.5-0.4,0.9-0.6,1.3-1c2.2-1.9,4.5-2.1,7.2-0.6c2,1.1,2.9,3,2.6,5.7c-0.6,6.1-5.2,10.4-11.3,10.8
		c-6.5,0.3-11.9-6-10.5-12.4c1.1-4.9,5.7-6.5,9.6-3.3C18.4,13,18.8,13.3,19.2,13.6z"/>
	<g id="XMLID_00000029727537193286395970000015335085098045692044_">
		<g>
			<path class="st0" d="M11.9,16.4c0.5-0.4,1-0.1,1.5,0.3c0.2,0.2,0.4,0.3,0.7,0.6c0.1-0.2,0.2-0.4,0.3-0.5c0.4-0.9,1-1.3,1.8-1.1
				c0.8,0.3,1.4,1.2,1.2,2.1c-0.1,0.5-0.4,1-0.7,1.3c-0.6,0.6-1.3,1.2-2,1.7c-0.2,0.1-0.7,0.2-0.8,0.1c-0.7-0.6-1.4-1.3-2.1-1.9
				c-0.2-0.2-0.3-0.6-0.4-0.9C11.2,17.3,11.3,16.7,11.9,16.4z"/>
		</g>
	</g>
	<path class="st0" d="M26.3,15.5c-0.6-0.1-1.2,0.3-1.6,1.2c-0.1,0.1-0.1,0.3-0.3,0.5c-0.2-0.2-0.4-0.3-0.5-0.4
		c-0.5-0.4-1-0.7-1.7-0.4c-0.5,0.3-0.7,1.1-0.5,1.8c0.1,0.2,0.1,0.5,0.3,0.6c0.7,0.7,1.4,1.4,2.1,2c0.1,0.1,0.6,0.1,0.7,0
		c0.8-0.7,1.6-1.3,2.3-2.1c0.3-0.3,0.4-0.9,0.5-1.4C27.8,16.5,27.1,15.6,26.3,15.5z"/>
</g>
</svg>
